<mxfile host="app.diagrams.net" modified="2023-04-07T05:27:44.609Z" agent="Mozilla/5.0 (Windows NT 10.0; Win64; x64) AppleWebKit/537.36 (KHTML, like Gecko) Chrome/111.0.0.0 Safari/537.36" etag="rT3rhHFGIGRnK7xue2KX" version="21.1.4" type="device" pages="3">
  <diagram name="Detailed Architecture" id="FFO8EXpT3xbrjFV9hges">
    <mxGraphModel dx="1110" dy="564" grid="1" gridSize="10" guides="1" tooltips="1" connect="1" arrows="1" fold="1" page="1" pageScale="1" pageWidth="850" pageHeight="1100" math="0" shadow="0">
      <root>
        <mxCell id="0" />
        <mxCell id="1" parent="0" />
        <mxCell id="Vv6Uo3IeAN1RbjcQnyYQ-1" style="edgeStyle=orthogonalEdgeStyle;rounded=0;html=1;labelBackgroundColor=#ffffff;jettySize=auto;orthogonalLoop=1;strokeColor=#EDC11C;fontColor=#000000;startArrow=classic;startFill=1;strokeWidth=2;endSize=4;startSize=4;" edge="1" parent="1" source="Vv6Uo3IeAN1RbjcQnyYQ-2" target="Vv6Uo3IeAN1RbjcQnyYQ-3">
          <mxGeometry relative="1" as="geometry" />
        </mxCell>
        <mxCell id="Vv6Uo3IeAN1RbjcQnyYQ-2" value="CLOUD&lt;div&gt;USER&lt;/div&gt;" style="aspect=fixed;perimeter=ellipsePerimeter;html=1;align=center;shadow=0;dashed=0;image;image=img/lib/ibm/users/user.svg;strokeColor=#FF0000;fillColor=#FFFF66;gradientColor=none;fontColor=#4277BB;labelBackgroundColor=#ffffff;fontSize=12;spacingTop=3;" vertex="1" parent="1">
          <mxGeometry x="125" y="119" width="60" height="60" as="geometry" />
        </mxCell>
        <mxCell id="Vv6Uo3IeAN1RbjcQnyYQ-24" value="" style="edgeStyle=orthogonalEdgeStyle;rounded=0;orthogonalLoop=1;jettySize=auto;html=1;" edge="1" parent="1" source="Vv6Uo3IeAN1RbjcQnyYQ-3" target="Vv6Uo3IeAN1RbjcQnyYQ-23">
          <mxGeometry relative="1" as="geometry" />
        </mxCell>
        <mxCell id="Vv6Uo3IeAN1RbjcQnyYQ-3" value="SaaS&lt;div&gt;APPLICATIONS&lt;/div&gt;" style="aspect=fixed;perimeter=ellipsePerimeter;html=1;align=center;shadow=0;dashed=0;image;image=img/lib/ibm/applications/saas_applications.svg;strokeColor=#FF0000;fillColor=#FFFF66;gradientColor=none;fontColor=#4277BB;labelBackgroundColor=#ffffff;spacingTop=3;" vertex="1" parent="1">
          <mxGeometry x="125" y="239" width="60" height="60" as="geometry" />
        </mxCell>
        <mxCell id="Vv6Uo3IeAN1RbjcQnyYQ-6" style="edgeStyle=orthogonalEdgeStyle;rounded=0;html=1;labelBackgroundColor=#ffffff;jettySize=auto;orthogonalLoop=1;strokeColor=#4277BB;fontColor=#000000;strokeWidth=2;endSize=4;startSize=4;startArrow=classic;startFill=1;" edge="1" parent="1" source="Vv6Uo3IeAN1RbjcQnyYQ-10" target="Vv6Uo3IeAN1RbjcQnyYQ-13">
          <mxGeometry relative="1" as="geometry">
            <Array as="points">
              <mxPoint x="280" y="310" />
              <mxPoint x="610" y="310" />
            </Array>
          </mxGeometry>
        </mxCell>
        <mxCell id="Vv6Uo3IeAN1RbjcQnyYQ-7" style="edgeStyle=orthogonalEdgeStyle;rounded=0;html=1;labelBackgroundColor=#ffffff;jettySize=auto;orthogonalLoop=1;strokeColor=#EDC11C;fontColor=#000000;startArrow=classic;strokeWidth=2;endSize=4;startSize=4;" edge="1" parent="1" source="Vv6Uo3IeAN1RbjcQnyYQ-10" target="Vv6Uo3IeAN1RbjcQnyYQ-13">
          <mxGeometry relative="1" as="geometry">
            <Array as="points">
              <mxPoint x="280" y="130" />
              <mxPoint x="610" y="130" />
            </Array>
          </mxGeometry>
        </mxCell>
        <mxCell id="Vv6Uo3IeAN1RbjcQnyYQ-8" style="edgeStyle=orthogonalEdgeStyle;rounded=0;html=1;labelBackgroundColor=#ffffff;jettySize=auto;orthogonalLoop=1;strokeColor=#4277BB;fontColor=#000000;strokeWidth=2;endSize=4;startSize=4;startArrow=classic;startFill=1;" edge="1" parent="1" source="Vv6Uo3IeAN1RbjcQnyYQ-11" target="Vv6Uo3IeAN1RbjcQnyYQ-12">
          <mxGeometry relative="1" as="geometry">
            <Array as="points">
              <mxPoint x="390" y="310" />
              <mxPoint x="490" y="310" />
            </Array>
          </mxGeometry>
        </mxCell>
        <mxCell id="Vv6Uo3IeAN1RbjcQnyYQ-9" style="edgeStyle=orthogonalEdgeStyle;rounded=0;html=1;labelBackgroundColor=#ffffff;jettySize=auto;orthogonalLoop=1;strokeColor=#EDC11C;fontColor=#000000;startArrow=classic;strokeWidth=2;endSize=4;startSize=4;" edge="1" parent="1" source="Vv6Uo3IeAN1RbjcQnyYQ-11" target="Vv6Uo3IeAN1RbjcQnyYQ-12">
          <mxGeometry relative="1" as="geometry">
            <Array as="points">
              <mxPoint x="390" y="130" />
              <mxPoint x="490" y="130" />
            </Array>
          </mxGeometry>
        </mxCell>
        <mxCell id="Vv6Uo3IeAN1RbjcQnyYQ-10" value="SaaS&lt;div&gt;APPLICATIONS&lt;/div&gt;" style="aspect=fixed;perimeter=ellipsePerimeter;html=1;align=center;shadow=0;dashed=0;image;image=img/lib/ibm/applications/saas_applications.svg;strokeColor=#FF0000;fillColor=#FFFF66;gradientColor=none;fontColor=#4277BB;labelBackgroundColor=#ffffff;spacingTop=3;" vertex="1" parent="1">
          <mxGeometry x="250" y="170" width="60" height="60" as="geometry" />
        </mxCell>
        <mxCell id="Vv6Uo3IeAN1RbjcQnyYQ-11" value="COGNITIVE&lt;div style=&quot;border-color: var(--border-color);&quot;&gt;ANALYTICS&lt;/div&gt;&lt;div style=&quot;border-color: var(--border-color);&quot;&gt;DISCOVERY &amp;amp;&lt;/div&gt;&lt;div style=&quot;border-color: var(--border-color);&quot;&gt;EXPLORATION&lt;/div&gt;" style="aspect=fixed;perimeter=ellipsePerimeter;html=1;align=center;shadow=0;dashed=0;image;image=img/lib/ibm/analytics/analytics.svg;strokeColor=#FF0000;fillColor=#FFFF66;gradientColor=none;fontColor=#4277BB;labelBackgroundColor=#ffffff;spacingTop=3;" vertex="1" parent="1">
          <mxGeometry x="360" y="170" width="60" height="60" as="geometry" />
        </mxCell>
        <mxCell id="Vv6Uo3IeAN1RbjcQnyYQ-12" value="DATA&lt;div&gt;REPOSITORY&lt;/div&gt;" style="aspect=fixed;perimeter=ellipsePerimeter;html=1;align=center;shadow=0;dashed=0;image;image=img/lib/ibm/data/data_services.svg;strokeColor=#FF0000;fillColor=#FFFF66;gradientColor=none;fontColor=#4277BB;labelBackgroundColor=#ffffff;spacingTop=3;" vertex="1" parent="1">
          <mxGeometry x="460" y="170" width="60" height="60" as="geometry" />
        </mxCell>
        <UserObject label="COGNITIVE&lt;br&gt;&lt;div&gt;INSIGHTS&lt;/div&gt;" link="https://outcoding.com/artificial-intelligence-what-it-can-do-for-your-business/#:~:text=Cognitive%20insight%20uses%20algorithms%20to,as%20automate%20personalized%20advert%20placement." linkTarget="_blank" id="Vv6Uo3IeAN1RbjcQnyYQ-13">
          <mxCell style="aspect=fixed;perimeter=ellipsePerimeter;html=1;align=center;shadow=0;dashed=0;image;image=img/lib/ibm/analytics/analytics.svg;strokeColor=#FF0000;fillColor=#FFFF66;gradientColor=none;fontColor=#4277BB;labelBackgroundColor=#ffffff;spacingTop=3;" vertex="1" parent="1">
            <mxGeometry x="580" y="170" width="60" height="60" as="geometry" />
          </mxCell>
        </UserObject>
        <mxCell id="Vv6Uo3IeAN1RbjcQnyYQ-15" value="CLOUD SERVICE PROVIDERS" style="text;strokeColor=none;align=center;fillColor=none;html=1;verticalAlign=middle;whiteSpace=wrap;rounded=0;" vertex="1" parent="1">
          <mxGeometry x="290" y="20" width="310" height="30" as="geometry" />
        </mxCell>
        <mxCell id="Vv6Uo3IeAN1RbjcQnyYQ-16" value="Render" style="text;strokeColor=none;align=center;fillColor=none;html=1;verticalAlign=middle;whiteSpace=wrap;rounded=0;" vertex="1" parent="1">
          <mxGeometry x="490" y="80" width="60" height="30" as="geometry" />
        </mxCell>
        <mxCell id="Vv6Uo3IeAN1RbjcQnyYQ-18" value="GCP Google Cloud Run" style="text;strokeColor=none;align=center;fillColor=none;html=1;verticalAlign=middle;whiteSpace=wrap;rounded=0;" vertex="1" parent="1">
          <mxGeometry x="410" y="80" width="60" height="30" as="geometry" />
        </mxCell>
        <mxCell id="Vv6Uo3IeAN1RbjcQnyYQ-19" value="AWS" style="text;strokeColor=none;align=center;fillColor=none;html=1;verticalAlign=middle;whiteSpace=wrap;rounded=0;" vertex="1" parent="1">
          <mxGeometry x="290" y="80" width="60" height="30" as="geometry" />
        </mxCell>
        <mxCell id="Vv6Uo3IeAN1RbjcQnyYQ-20" value="Streamlit Cloud" style="text;strokeColor=none;align=center;fillColor=none;html=1;verticalAlign=middle;whiteSpace=wrap;rounded=0;" vertex="1" parent="1">
          <mxGeometry x="560" y="80" width="60" height="30" as="geometry" />
        </mxCell>
        <mxCell id="Vv6Uo3IeAN1RbjcQnyYQ-25" value="" style="edgeStyle=orthogonalEdgeStyle;rounded=0;orthogonalLoop=1;jettySize=auto;html=1;" edge="1" parent="1" source="Vv6Uo3IeAN1RbjcQnyYQ-23" target="Vv6Uo3IeAN1RbjcQnyYQ-3">
          <mxGeometry relative="1" as="geometry" />
        </mxCell>
        <mxCell id="Vv6Uo3IeAN1RbjcQnyYQ-39" value="" style="edgeStyle=orthogonalEdgeStyle;rounded=0;orthogonalLoop=1;jettySize=auto;html=1;" edge="1" parent="1" source="Vv6Uo3IeAN1RbjcQnyYQ-23" target="Vv6Uo3IeAN1RbjcQnyYQ-38">
          <mxGeometry relative="1" as="geometry" />
        </mxCell>
        <mxCell id="Vv6Uo3IeAN1RbjcQnyYQ-48" value="" style="edgeStyle=orthogonalEdgeStyle;rounded=0;orthogonalLoop=1;jettySize=auto;html=1;" edge="1" parent="1" source="Vv6Uo3IeAN1RbjcQnyYQ-23" target="Vv6Uo3IeAN1RbjcQnyYQ-47">
          <mxGeometry relative="1" as="geometry" />
        </mxCell>
        <mxCell id="Vv6Uo3IeAN1RbjcQnyYQ-23" value="Resume Services" style="rounded=1;whiteSpace=wrap;html=1;verticalAlign=top;fillColor=#FFFF66;strokeColor=#FF0000;fontColor=#4277BB;shadow=0;dashed=0;labelBackgroundColor=#ffffff;gradientColor=none;spacingTop=3;" vertex="1" parent="1">
          <mxGeometry x="70" y="410" width="170" height="31" as="geometry" />
        </mxCell>
        <mxCell id="Vv6Uo3IeAN1RbjcQnyYQ-26" value="ChatGPT" style="rounded=1;whiteSpace=wrap;html=1;verticalAlign=top;fillColor=#FFFF66;strokeColor=#FF0000;fontColor=#4277BB;shadow=0;dashed=0;labelBackgroundColor=#ffffff;gradientColor=none;spacingTop=3;" vertex="1" parent="1">
          <mxGeometry x="350" y="430.75" width="120" height="31" as="geometry" />
        </mxCell>
        <mxCell id="Vv6Uo3IeAN1RbjcQnyYQ-28" value="Bard" style="rounded=1;whiteSpace=wrap;html=1;verticalAlign=top;fillColor=#FFFF66;strokeColor=#FF0000;fontColor=#4277BB;shadow=0;dashed=0;labelBackgroundColor=#ffffff;gradientColor=none;spacingTop=3;" vertex="1" parent="1">
          <mxGeometry x="350" y="471.75" width="120" height="31" as="geometry" />
        </mxCell>
        <mxCell id="Vv6Uo3IeAN1RbjcQnyYQ-29" value="APIs" style="rounded=1;whiteSpace=wrap;html=1;verticalAlign=top;fillColor=#FFFF66;strokeColor=#FF0000;fontColor=#4277BB;shadow=0;dashed=0;labelBackgroundColor=#ffffff;gradientColor=none;spacingTop=3;" vertex="1" parent="1">
          <mxGeometry x="350" y="511.75" width="120" height="31" as="geometry" />
        </mxCell>
        <mxCell id="Vv6Uo3IeAN1RbjcQnyYQ-31" value="" style="edgeStyle=orthogonalEdgeStyle;rounded=0;orthogonalLoop=1;jettySize=auto;html=1;" edge="1" parent="1" source="Vv6Uo3IeAN1RbjcQnyYQ-30">
          <mxGeometry relative="1" as="geometry">
            <mxPoint x="465" y="446.75" as="targetPoint" />
          </mxGeometry>
        </mxCell>
        <mxCell id="Vv6Uo3IeAN1RbjcQnyYQ-30" value="External Source Integration" style="rounded=1;whiteSpace=wrap;html=1;verticalAlign=top;fillColor=#FFFF66;strokeColor=#FF0000;fontColor=#4277BB;shadow=0;dashed=0;labelBackgroundColor=#ffffff;gradientColor=none;spacingTop=3;" vertex="1" parent="1">
          <mxGeometry x="495" y="430.75" width="170" height="31" as="geometry" />
        </mxCell>
        <mxCell id="Vv6Uo3IeAN1RbjcQnyYQ-34" value="" style="strokeWidth=2;html=1;shape=mxgraph.flowchart.annotation_2;align=left;labelPosition=right;pointerEvents=1;rotation=-180;" vertex="1" parent="1">
          <mxGeometry x="220" y="450" width="120" height="80" as="geometry" />
        </mxCell>
        <mxCell id="Vv6Uo3IeAN1RbjcQnyYQ-38" value="Streamlit/Python" style="rounded=1;whiteSpace=wrap;html=1;verticalAlign=top;fillColor=#FFFF66;strokeColor=#FF0000;fontColor=#4277BB;shadow=0;dashed=0;labelBackgroundColor=#ffffff;gradientColor=none;spacingTop=3;arcSize=50;" vertex="1" parent="1">
          <mxGeometry x="10" y="470" width="120" height="33.5" as="geometry" />
        </mxCell>
        <mxCell id="Vv6Uo3IeAN1RbjcQnyYQ-40" value="GCP" style="aspect=fixed;perimeter=ellipsePerimeter;html=1;align=center;shadow=0;dashed=0;image;image=img/lib/ibm/data/data_services.svg;strokeColor=#FF0000;fillColor=#FFFF66;gradientColor=none;fontColor=#4277BB;labelBackgroundColor=#ffffff;spacingTop=3;" vertex="1" parent="1">
          <mxGeometry x="730" y="470" width="60" height="60" as="geometry" />
        </mxCell>
        <mxCell id="Vv6Uo3IeAN1RbjcQnyYQ-41" value="AWS S3&lt;br&gt;AWS Storage Gateway (hybrid support)" style="aspect=fixed;perimeter=ellipsePerimeter;html=1;align=left;shadow=0;dashed=0;image;image=img/lib/ibm/data/data_services.svg;strokeColor=#FF0000;fillColor=#FFFF66;gradientColor=none;fontColor=#4277BB;labelBackgroundColor=#ffffff;spacingTop=3;" vertex="1" parent="1">
          <mxGeometry x="730" y="365" width="60" height="60" as="geometry" />
        </mxCell>
        <mxCell id="Vv6Uo3IeAN1RbjcQnyYQ-43" value="&lt;span style=&quot;color: rgb(32, 33, 36); font-family: Roboto, arial, sans-serif; font-size: 7px; font-style: normal; font-variant-ligatures: normal; font-variant-caps: normal; letter-spacing: normal; orphans: 2; text-align: start; text-indent: 0px; text-transform: none; widows: 2; word-spacing: 0px; -webkit-text-stroke-width: 0px; background-color: rgb(255, 255, 255); text-decoration-thickness: initial; text-decoration-style: initial; text-decoration-color: initial;&quot;&gt;&lt;b&gt;New Relic: Observability: &lt;/b&gt;Detect anomalies and squash errors across your distributed system&lt;/span&gt;&lt;span style=&quot;color: rgb(32, 33, 36); font-family: Roboto, arial, sans-serif; font-size: 7px; font-style: normal; font-variant-ligatures: normal; font-variant-caps: normal; letter-spacing: normal; orphans: 2; text-align: start; text-indent: 0px; text-transform: none; widows: 2; word-spacing: 0px; -webkit-text-stroke-width: 0px; background-color: rgb(255, 255, 255); text-decoration-thickness: initial; text-decoration-style: initial; text-decoration-color: initial; float: none; display: inline !important;&quot;&gt;. Deploy and manage containers with instant code-level insights.&lt;/span&gt;" style="text;whiteSpace=wrap;html=1;fontSize=7;" vertex="1" parent="1">
          <mxGeometry x="740" y="210" width="100" height="60" as="geometry" />
        </mxCell>
        <mxCell id="Vv6Uo3IeAN1RbjcQnyYQ-44" value="&lt;b style=&quot;color: rgb(32, 33, 36); font-family: Roboto, arial, sans-serif; font-size: 7px; font-style: normal; font-variant-ligatures: normal; font-variant-caps: normal; letter-spacing: normal; orphans: 2; text-align: start; text-indent: 0px; text-transform: none; widows: 2; word-spacing: 0px; -webkit-text-stroke-width: 0px; background-color: rgb(255, 255, 255); text-decoration-thickness: initial; text-decoration-style: initial; text-decoration-color: initial;&quot;&gt;DataDog: Performance:&lt;br&gt;&lt;/b&gt;&lt;font face=&quot;Roboto, arial, sans-serif&quot; color=&quot;#202124&quot;&gt;SaaS-based monitoring and analytics platform for large-scale applications and infrastructure. Combining real-time metrics from servers, containers, databases, and applications with end-to-end tracing, Datadog delivers actionable alerts and powerful visualizations to provide full-stack observability.&lt;/font&gt;" style="text;whiteSpace=wrap;html=1;fontSize=7;" vertex="1" parent="1">
          <mxGeometry x="860" y="210" width="130" height="60" as="geometry" />
        </mxCell>
        <mxCell id="Vv6Uo3IeAN1RbjcQnyYQ-45" value="" style="shape=image;verticalLabelPosition=bottom;labelBackgroundColor=default;verticalAlign=top;aspect=fixed;imageAspect=0;image=data:image/png,iVBORw0KGgoAAAANSUhEUgAAAbcAAACCCAYAAADFV4ZBAAAAAXNSR0IArs4c6QAAAARnQU1BAACxjwv8YQUAAAAJcEhZcwAAFiUAABYlAUlSJPAAAE5SSURBVHhe7Z0HdFzndec/NhAgKtEIEGAHSIK9iKQoUSzqktWsZlmxHK+zPt5kk5OcLTnJOsnJnrO7ycbJSXKyaztZ98Rqlm01q1ldlFjF3ivYQAAECZAACAIEob2/++ZR4PC9mTcFM0Pw+1vjAQbDmfe+9737v/0O+UxgLCwsLCwsBhGGhp4tLCwsLCwGDSy5WVhYWFgMOlhys7CwsLAYdLDkZmFhYWEx6GDJzcLCwsJi0MGSm4WFhYXFoIMlNwsLCwuLQQdLbhYWFhYWgw6W3CwsLCwsBh0suVlYWFhYDDpYcrOwsLCwGHSw5GZhYWFhMehgyc3CwsLCYtDBkpuFhYWFxaCDJTcLCwsLi0EHO88tw8Dl6LvUZ3ov8rikz5d6+kx310XT1dFj2tsumOEjhpopc8aY7Nys0L+ysLCwsOgPS24pRl/fZ6a3+5Lp6e41PV3ykGeIy/29+7yQWGePudBx0Zxv71ZCuyC/Q3IXec+FXlNUnmvu/tp8U1qVb4YMGRL6ZAsLCwsLF5bckozPhLwuCEH1CGHps5BR9/kQgcnPEBSvQ1oucXULqV3s6RXS63NITt7X2yMEeAHSE+tNfu6PsuoC8+gfLTXjppWaocMsuVlYWFiEw5JbFLA6EBYW12d9febSJbG8lHg+Jyy1wPR3nh1S62rvUcuLnyEwtcrk/Rfl3/LvefDzpV75THnEgtFj8syDv7fITJlTYUaMHBZ61cLCwsLCxXVPbn1CVpcu9Zk+SEaeXbJR8hGrCQJSchLyunA+RFJiiWF1dYbchl08C5nhToTgWFLiZnwOxJjsFc4rzDb3/4dFZtoNY0127ojQqxYWFhYWLgY1ubkWlyZl9DpWUl+vkFmIyHi9uwvX4EWNdZ0XosKdiIXlxLzE+uroNufPOSTGM3+DENOJkTnDzb2/s8DMWjbe5BZkh161sLCwsHBxTZIbhzxE/tcnzxAYWYVqgYVICyuM33m9S4ir89wF03VOLK2zF5TAICnXXagxL2JiuBLlZ2JiyVoRkj0GYnmJs9312/PMgtummPzRltwsLCwswpFR5OYeij7J//HMazzj5jPyTMxLXX5CXBd7+jSude5Ml+lo7TLtPLddcH6XZwiLBA03xtUr7+8VC25AMcSY4SOGhR5D9Vhxb6rVKEScLKx6Ypa58Z6pprBsVOgVCwsLCwsXKSc35+uwuxzo7/wiT5ru3uMkZrhp77gH29sc4jp3msd5IS8eXaaztVvJynU/ph1yHtk5I8zkOWNM7YKxpqyqQI9938YGc2hbozkrx8x5JgPLHppubnpgmimuyA+9YmFhYWHhImXkxteo60/IqqsjlIgRemhs69wF03G225w/e8F0nuvWny/I34iVwRqarSif4SRoOM/O5+pT2oELMm/0SHPP1xaYaYur1GrDWsSC6xWr7eCWRrPutX3m0PZmh9ATxKI7p5jlj87UsgALCwsLiyuRMnLbteaY2SmPsy3n+8W3HHeda3kRJ1MSkwexM6ycFB1ewhiVn2VuvHeqWfHYTDNSrLfu7otirTWb3IKRSkDDhg01x/a1mLVCcDs/Oabnmghm3zLB3PbkbFMxoSj0ioWFhYWFi5T1lsSNWL/zlDmy65RpONRqzpzsUDcjsTEsNSw4rQMjRnbRcTVGIzasJUhjZPYIMzxrmBkyND0FzZDZpNkVZvG9tWbkqBEYmmZE1nC1PI/sPmVamztNVs5wLbq++YE6M2/lJDM0wWPtFuWAtlzJcnNaWFhYDCakjNxIWcdKcwuXXTdjPMDVN3pMrpl6Q6VZ9sU6c8dX55pbvzTL1C2qUkspXgwVouSzYyFJiqjH1hSbpfdNNYWluaFX5bPkM7DmTp9sFyJvl3P+zGRlDzdVNaPNortqzMybxifUOksLxsU6zIhYo4WFhUWGIWXkVlCSk3CrKKyiKiGS+bdOMisenWlWPT7LLBFrad6qiWbhHVPUJThn+QT5rtgzCPOLc8yEulIzYUaZGV2eZ/KKsoWcRmr/Rj8ri8bFk2aNMTfKMYyfXipkFfpDCDny7zvPdqsrtrenV18bMRKCKzaL76kVS64kbmsT1+7FC5RAxNbdxMLCwuJ6wLC/FIR+HlBQS0bMjeSRWF1pkAzWUd3iajNLLJ66JdVm4qxyzUbMyctSiwiKKCgdpdYTHUMgFGJ6QVBckWdm3zzBzFw6TuNjkCMtriYK0fGZF7v79HuyhVxxL0J8FeOLzNQFlWbuikmmZl6l444MA2UK+zedVAutYmKRfgYYNnyoyS0cqUR3fG+LZoXGiuFZQzUrs2Rsvn6ehYWFhcXnSFlCyZmmDvPs36w2J/afUbdkUNCNo3pqqSZQ1M6rEPIapfG1cFCgjZWEhXhcvmPjWwfM/s2NWrDtdYoQAoTE5824sdrMkc8vLMvVWFa3WETE/iCgM40d5vSJDnPp0qXLxeJ8f5H8u3IhODr0kxnphZYT58ybP9miJEva/tSFY0N/cRJlIPo3f7zFbHn/cMwEB1F+4RsLhezH2dE3FhYWFmFImeUGoR3c2mjOnjofmNyGDR8mBFJoZooAhxiwpoiJeUGzEcUKwhri3+SNztakFEiKuBRF35roMVKISQipWixBLB8sQR5YQCOEtCAKSK2gOEd/5jvHTik21bUlZkJdmRlfV2rGCdmWjys0owpGRnS18r1H97SYhoNnTP7oHDN2crEZFiJCrLkRci4c5+EdTdoCjOMNCki2Rsi+YsJoPScLCwsLi8+RMn8WAphkj1hcaDn5WUImZaZ2QWVU9xukQfcSMhMhtMmzx5gVj880yx+doeRFnAsiqJlbaW66f7q5/StzdSbawtsnK9lFSu7gT+6feZ/XWyEymipD3K6liHVFeyyssqNCvE1H2+Rv+icF8bbx00rNtEVV6vKMBcTaesTC1JIJCwsLC4srkDpyE6sotyg7MLkRRxszrsDUzq9U6ylI6nypEGDzsbNKcPRAKZZ/N//Wyeaer883D/3+EvOFbyww931zobn5wWmaAMJ3JAMQFgXbmhnZ2G4oVMey4lzpIAKpY73t3digkwXCMX/lJI3zxVoewHidSxctuVlYWFiEI2XkRpp9Tl50yw2riPfUzK8wdzw1V8itIrBVU1yZZ9pPd5nWJrHeQtmJTkr+SHUrQpQllcmfXq3HPELIu3Ck2bfppNn2Qb0SHbE2LMbS6gJtG7ZnwwlNMAkv4CaJBbLNDiWcBAWuzIu4Wy0sLCwsrkDKyA04bkl/YoEkSNagL+OqL81SQiKGFhS8lzjYqeNnzemGjtCrqcGwYUNMQfEos/jOGu19+foPN4uldkITVigXwPo8ebjVrP31PnVR9gfnTAlCrDV63UJuWIwWFhYWFlcipeRGDIokkUgYMmSoWl24+q60b6IDK43YHGUAZCqmvMAZchaCXfHYLCGrUrP6xd1mw5sHDL00SYTBhUi26PvP7TANB1tD/8gB7ku3u0lQdHV2a3zRwsLCwuJKpJTcRuaO0MQSP7cghNZ36ZLGyniQTRgriLvRveNkfauWB6QanBrlCzfcMUUTWXBTbnjzoGltcizJ7gsXtQXZGz/ebA5tb7qcfMK6kPH5+byE6CC2B7mlqJrDwsLC4ppBai233Cy1TvzS5yE9rDs6kGjBcwxWjAuSVrKyhymZuISSDuQWZpu5KyZqoTfEddnCEh7qOt9j6nc1mzd+tNmseWWfNlRmJE6sZExyCjPtbH9JCwsLiyuRcrckBOeXVEI6P4XRlZNGqxUTD7JHZYnVl6/NmJuOnNWU+XSBll60A4PkiivzQ68KhIwoG6DY/JNX9po3frhZrTsaScdihTFN3LolLSwsLK5Gyi237NwRvuSG5YZlx98/i9McGS7/lro1MhUpC4intVUyUVSWa+beMsHMWFJt8kbnhF51APESGzy4rck51hiJSrMl5TytV9LCwsLiSqSU3IhF0fXDj9z6evtMW1OnCO2ra8ECY4hYTKOz1fKjGwrWULpRUpWvXVYmzSzz7bASD3q6LuqYINs82cLCwuJKpJTchgqpUbPmS259n2kRdP2uU6Y3geJkCJQZa8yQO93QHno1tSCppa2507TI93e0XtBEl+mLqwyjepIF6uWwTOl5aWFhYWHxOVJKboBCZb9Gw8SbcM19+vYhLXqOpddif5DAMVweDEKlmDodgNi2fFBv1ryy12x5v960nGg3pVUFZsq8Ci1oTxawcmnDZWFhMfiAwk8tKzF6xlwRiiDWzu+8Hq+MTCWQ63iXCKF4nQczPlHUkx1eSdlUABeb3jlkPvzFLtNY3xZ65UoQdyOx5L5vLNRJAHQX8akc8AXxq3ef3W72b2o0C26bZO79+oKY56axaVgYvlvT82M8ht3rTpjXf7TJNB89q4k09Lqct2qSWllkSVKLlyg4tpvun2aWygPiHChwzOfP9Wi9XrJ2i66r/B/WPAXwuGspwndLIuLJlE0UJCGRsRreQaY/aBIQa49UbrGu9h4dgZSIRyJRuDMKY52r2N7aJde+J+K60J2HgcSJzmz0hHwtXhgUuWTVrl7ef3K8KJu0B3T3H/Wy6Zjq7/SLZQgxJHDR9PYKIcjvl8mMvrVy/hwbuQW0D6T/Lsfu3D/DTFbOCP2dc+IcUw32em9Pn4ZLIF8S3tjzGC0QGq+5w6q19EnWf0QWE1qc0WUYPv2vxYis4U5bwjjOJeXktnfDCfPOM9u1g3+kb66cPNp84d8v1AGisXQpAcf3nzbvynfs33xSCeWBb94Q6DNUu5ALc/GCbCbZVEzPZlHzCrO1Ri+W3o+bxPp8RwjWdYty0WbdPMHMuLHKbHjroLbhSgZo/LzsoTpdr4ECJRWb3j2sbcWSRm6yllmyebHkEbok3tCGDJJmbBHua64ZwgchNNDghuO6bJVz7BSL3w8zllabxXfXaseZoIfFjbztwyNmy3uHdYRSunDTg9PM7GUTYuqEg1ZNM4Lda4+rcPLDvJUTdQAv1zLZQLl655kd5oDcMwjNRMEW5tplyf6iJeCoAjKs87RNHjMi8y/vv1Dt6QASnWuZcV54mhoPt5qTh1pFQT+nCjCvX7ZsIPbQoagRIPcG3Y0gtNHluTqpZOyU0XofkalNch6kF4vcigfIBK4RRIwCRyiG8zh1/Jw5fbJDFUbOEXJGxvJ+HlwDV5HgXLge2XI9SAgsH1dgKiYUaVMOFErOBfKL5VxSTm5H9542b/10izm0rUlPNBJmLB1nbntytpYGxHJSe9afMB++sMsc3ddiZt883tz7Owv0YvuBJWCTkcxCYfWBrY26wZgFhxV5+5NzdN6bdhAJCJokv/7DTVqO4C7xuKklao2yaT9+aY++lihIVFnxyEwdxTNQIKPzo1/tNute2x96ZWCgAid7hBL19EVVZsrcMWaMbHBuYP42kCSHEvK6WNQ7Pj4aesUbJZV55oHfXWymzBmjxxUETG5Y++pes+bV/bqW6QKTMJbcXRPxXggHDQfelPv18I7miC4whNETf7zMVMR4rwYBmv8v/2mtEiwW5ECB7cU9XjlxtKlZUCnXuMKUyXnheUk6QchS9vZeUqv4yK4Ws3vdMbP/05OmS6zTRCQy9wgt/wh/kKFdLTKHBLtkhkJccJyX5By6zvWYY/tb9Pj3ftqgIaVkeCg4F/InqqcW68izuSsmiPKUE/hapGyemwsYnPllCJNo/mJYn/6JsDfz0IIAv+62D+vNgS0nVeMpFy2GSdmUIPgBK23Phgbzm59tM+tf368uUwafYlLjH66dP1Zv2qDCDKAd8zlo6m7CR07uSLFM8lUDOby9WV9LFIUlo8y4aSVX1tElGQiU4/tOmxMHziR04wUBGuo5IX+E6a41xzV2iesFd1oyM03DsX31UVWKuO6RgIuodKxo+LKvgjb0RrlpONCqa4jClC7QOJyJ9iRbBQH357aPjpiDW5tUI48EXGlMtCdxKlnTNlygeO779IRaM8iPgQTeGpTP+p3NOn+ytbFTPQzJvr/OCgHs+OSYee/ZHWbNK3tUCUZeJeP+uiDWXpPIHo7/5KEzSmzl1YVJt0A72rrMDrlv3nt+h/nwl7tVPkRzX8cKWhbiOcLoGDe1TBPygoYEkk/nUUDnDgqtg2gSWHa71soGeG67WnpBhpzy/n2iQWDiA3y67oBQP9TvPGU2vHFAtdTPg5tugHOI2SVa1TnRsLjJggIynSeaBlaIezHQciA6hGKyNEF1W4hgGUik0rh3rWjWiWu4+b3D5uXvbjDrROlglNFAALfJ8b2nlVSjAYFPSzWUllSuSzqAkD8sQp54VzT09vTqPcp7oymtcWEArfb+cPcfssZJCjtsXvmXTzXMwT5J9Jrz75E3v/m3beadp7ebI7udzHBH5oTelCjkc/g8FLUDmxs1xv/r73+q5xOLDPMDxgBhlVe+t9G8+ZMtQjzNqnToLMskX/v+8iDWLZBycsvKGa6PoMLdWchGIbgdZuv79b6aNRYWca5PXt4rFlOrLgj+cohEW3n5AI0UUsNH7KUVsrhHd7eI4JONEYBcXWBST6grN8senG5uvHeq9pmcOLNcY0sESZ10lcRByUGsxd/XClh7rj9JOR+/uMd88pKj4SYbTEtvPNKqaxkEaMMn9osVFsWaudbB9Ao8LO74qEhAMB8TBQF3PtbtYAAyhEQOXMnrRfl948dbVMGKlyBwT+/EWhNlfecnR1WmDKQlyv2Dsk69L7Hkl7+3QeVcECPBDyicxI7ffnqbGBENSvgDbU1/jtjWPeXkBqlBNgRrg4IsKTQc4j7vyKLiriK1HqJDu8Rkfftn28xHL+7WoaBcUMB8t6raEk1K8EP3+V71EXsNEXWBdYS7oo87OAZA4pPnjtFA/u1fmWOWPzJDx/lk541IigYFnJTgxP3bmQxuRorxt354xGx862BSCQ6rF+WGfYQwCAIIF7cpezAomBI/IBZNDFB3UcBDQGEi+asdqy3gvzl/7oI5JopCe2vqG5YPJNh/Z4WIdq87bt5/foda+LFeSz4DYiNujeWG+y5GcRI3kDWQ0IEtYiQ8v1OzyeMhOIht64f1SvS4IFFiUnUO8SDlCSVgtWjha17dG3OBNcRI5gy+/UKxgApLclSwk5XDBSOV201Swfc//7bJZsGtkyMWTiPUcDkgOP06oxDveerPV5hx00o16zERIGBolPzC36/R404UxCJv/fJss+juGk0PHgiguWIRM4vOj5QrJxXpPDsUiUgbiuuDogBBYPlQ4B5LBhxZimSILrqrRgPniaJBLI3Xvv+p0zggBg20qGyUWfmlWWbBqsmqxEQCa7Zr7XFNiND6zdDrfsDjwNpQo+kXoyP+WzGxSFvakUEX6S52VbsFsm7TbqiS/Rx9KC7W7K/+aZ1YtG0xCXIy9u786lwzfXF1wveKC9x2L313vcZ3vBJKWIvRIg/IdlTI4Xp5RhB1XAviOJpi33lRY1/q+QhyirKQuSILlj4wTb0xsWSGEsP74IVd6roNst+JjxUU5+g+o20fHijCG8hArjVuOmJrHWeo5e2Q/RK5hMUFCRrcP5QPkRwVNEmLqf+ECOiB23i4Tb8/CMh4zisaKbI61+QUZOl5aAZnyOBQeSDHzTXB+8a+bxcSJWMZGXEZ8vanvrVcjYOgMd20kBtp5avFCsPKihUsCvU0ZHyxECSc6GaRkyeOh7Dnpid4XrugUhM4Il1AFhBtau1r+y6TLW8fOmyYLiIXhhq1FY/N1BTVRGNlLDcCnUJ1LFGEVyKXAOLl2JbcUxsxaSYRRCM31nf5ozNkncpDG897jThPBCU3YTfkJtokwoXJ6RA9Q2YjpZsDvquqtljr+8g8pSYmXnAsNK4m1b2t2dty4/u8XkfQLBDl6eYHp+t+iwT+OaR29lSnnnc0gcIew72HMKGsJRz8e6ZfrHp8pia2BMqEk4MoGeuUWQQJyOOCI7kqVtcrn33Lw3W6H1FEkoFo5EaN3cyl41SRBX53E9eR/Ut4gcYHXXJuWGRtouDiDUBBVlni9wEhQAp3/7v5KmMgi2joaO3SGBsJJFhQkcD6EacnQ3zMhEItUXAmnQx3yhJC+xEXJ14HSODUiXbTfLRNleYzQnSu58oPhaW5ZtWXZppZN48PTNC4ID/85S4l6WieIvYviieZzuXjnXPgd63JE7JD6XGTW1x5gCXJ+Si5iXzU6yL3C7Ft5DKvP/knt2jWZEaT254NJ8wHP9+prp1YweKMFwuKbvutzR2mXTQX2B/SG5U30oyuyJXNUaw1EixmNHD6uFIQ3PvFbGcDUTOCICgqHyXCYJSmopaPK0qaJsrFPNPUoWtAUXs8LgIXpC7f/MB0s/S+qTGleMeC6ORmzCN/eKPeLEFudsA1o+4Fa4lr2CQWAq5nXMynyIqLoBnSo7RuSbW59YnZevPECxSLF/5hjZZ+4N7tD4SMJj+JwkDMzwtVNcXmli/WmVnLxqs2mkwclnXAhYRQCQcCjr355T++xYytGZ3U7+Z+wO32r//rI9MoBBt+HRAsKFToLyQoeEGVQSHeqSL8k5GhF43cEJzs/5WPzwq9Ehkq8uQ/Ppd44vmz3eZkfZtmceOiPiX7PXw/hGPu8oliuc9UxSaasrJZlPm3f7bVnKbG0UfaQggQDSn8lMGQ1YqiPlLWO9Iacj9ihUIE3D/sF3IEKDGIJNmnzK0wtz8520yYURZVOcK7Rdhnxyey/u3+4RvAOYybWmomzirXLO6SynwNQ2FdBzEMIDvImXPCgsN70SyKBx6Wm+6f6njPAiq0KS8FAAgV3B6xuiUB1ezUbqx4bIaweJUZP10WUi6QsymqzYSZ5eqGDBrTY2OOEksQ1xLuGi4IwmrOLeNVgFbXUieSo+SZLLBZERKk8Z8Q67WzLX7rbejQoarhVU0pdoTOAACtiWQBrAivw+TerltcbcrlOIJaUqwBBOK4LbKVpBAUuJ1xT6C9uS7mcKAMoCBQbDtWtNx4BCjrjXK14Q2xTs5dfcNyTGjmJAGxV71IHU1TPQWiSAUl9aDAmiVTEU08HOxZSBdlAtdVIMstIHAPkXFMCQCDdcOB4jdt0VhTWlmgcRcv4C5DW2c/UJibKFj7vRtPqJLh5TrG1YWiMWnWmNArkcH68XD3H3tujOw/rCVKeCA2ZFQkNzUWGPuVEImfsOVewTqkWxKWoZ8Si2wpLBtl5ovliaIK4bD/UFqiESd/5328n+PBWkYh4f6JRNAcP+8lfBOpfpf7ZOeaY9pCEJLzhRwm13y2yE2sduQBDRlcd2q083DhXhfko8qFcYUi40v0mePlWIN+VvLuihjAZooWp/ADG0Yfsk/YFLhZqIMbXZ6nnxnwvK8ARIggW/Wl2eaWR2YoqbGQibogI4ENOVYI6ab7pqnFFe93QQDanifNGZPcBImsFhsWdwkaMW5WlAw2uR/aWjo1fnE+iibpBY4VQUPBdlcnQfEriYs9VCTHQoE8ru0in9geMVpc600idMM/I2EEWUz9yuTtUc6BImLig7R/CrcyIFHuNUh1+pIqvY+9gGv52L7TQkbnkr8uHnC+I/F1wEszd+Ukc5MQzCRRaiLVA0IO1Kq2nfJPRPqsr089EQ2iBPiV63DfoyDNWzHJrHikTjukRNr3kTBs+DAzoa5M44HIsGi1vdTBUTsY6RphqVH/iVvdD5wDijpx/5Vy79JQIl757gXOC1dt3ujsmBTZtJAbWi4bJ16NG39z0IBmULChcHclQ9MMCr4T92rN/ArZDPHFyyA3BJHfzXOtAY0NwbLi0VCM08cqQSslTtd01LtHaSTg+qAwlJsb90c4honiwZgiNOjiinwzec4YX20RF9bRPaeuDH5fo8BNR+MBLFVtPRcGhKVa2GLhIIRZFy+wvqScNxzErRm/yz0dIPSAorvwzikqUP2uO3xwUs4Rd6BXIgdyitgUVo+TVehNIFgiuHGXPVxnckLu3kTB9ZknJM3+jWTl4P534oz+exclpameuZg+8kU+HrcjbQ5vemCaxgeDWlYDjbSQG1aLkzUT+9ezR3rpHIJmeY2BY8fFws2vD3kBlwbJEbgH4nF98plsvME0kZs1qZlXoS3PsrL93Zyd5y6IIL464SIa8OnTkYS4hJe7EdcbGjCJS9mjhpu6G6uVdL0EDyUKdB6JpSwgU4E7mHRxrBIvYVwiRI+bHtfdqMKR6p5EEfACLqzj+1s0ZnKtgftw8qwxZubSaiEff2UXBYl4tFddH54lkqVIDPJzR6Lc49ZccMdkXdNkAW6pnFykfUQjhSo65Drj6m0/422VIaOO7Go2ne3+xetZWcPVJbzy0RlyjwR3GaYCaSE3Ng9sH7QNUH+oGw6feBzuqLRA9gQbg+OGgNhI3PBaDBrSjismjtZZb7gn4gGfS/ujwQRcHTfcWaPuZj/Sx2WCyycWcI/SC2/32hO+QodYAbFc7lNiMsRyKiYVyTF53y5YkDTp9hMA1wKwPnA9Ua7gdRp4GcrGF2hcB5DoMH5qqQg275gna4vgRLhfi8tCMtp4UXCwqvyADCKp5oJHkgvdiLBeyZDF0+QFFHySLybNKg+9kjwgW2mijFfID1wjjp+ErnBwzSBtXO6RYo+4CmmYjdWZQbymSAu5caOwGJECmX5Am+gSjb2tOX3d1YMC7XX3+uPmved2ml/93/Xm2W9/bJ7j8bcfa5be2ted7EOE98SZZTp9IJ4NgusnlhqtawGuVkvav58SRPIDRcaxKDpY/Id2NJnGo971W8Rd0ETJ8nKBh2HxXTWO9eYBrDcybiMG3DMcxA9xR2KJeIHmu1UiLIm5AdzFKGPUHfm7bNs15hQt/T1TQawVgoiUnEa7Ma8MTty6zWRdonT6kDtxfVy7w4cHS8KKFSQbMVUlUsIR3gtaC4bfCyhqlEi0iOLmV1rAupDogZcjE5Emy22omstxkRsahVhuFC5mKtCGqGt5/u8+Nq/880ato2Lkyf5NDToVgVjESXnU73AKhzknLBRiTFgKsYLPiFbbci0CmTlxhn9gnxsQsmoNOEaG95PsgOsNa5d1DweEOnayEGo/dxS9SUksgfC8gv1o6Wq9JWmMUTpA9wniQ15uWkAcp3JS8RXnT9LAjMXV2kzBKyGKwl+sN69avWsBKODl44silthQs4pyFb6XLl26pG5LP2se5Q2FgWkKAwXi+JQ04Wb3A40vUBCvSkiTw+6Q1/k7LlYvkFCEdUucLRORFnJDaGGS84gHxAaoi8pUjZC02a3vH9Z6E1K6SSvmmEn6gIhwB/T19anrA6uN9WCjYOLTdzJWQGwklfi52a5lIFT9LCbaoXHuaJ9BgIVLofih7Y1684aD7yGJYMzEQrkmnwtrfsZKqVtc5blnkV8cAwWu14y7vB9IKCA5gtihF9DQibVRlNt/XdzsyclzKrxjb7IulPto03OPpItMB+dN1x08Kn4guxQFq7/lw37Qtn5Y8j6njVuXLkvUUg4U8DjkF2df4YUIB8oeheAXwxJGIGWsUmSKH0FzL9AkI95M74FGWsgNkHkVT8wNsJkI4Geq9TZEVhXrEsHrtTHQ2hjSSVag6zIgiQJLdmgcHgptXSNrkuwM0kwAVoFfMgeCA2UhaBcNao4gINyIXsAlSUyJtOZwcM2Y8cV7vGKAEASZhrHGADMBdIPAmvXrDgOpUbYS3rYLnuPazF0x0SF9j2uEyw7LLZ5uROkGRE5CE4lFfoDEUFz7W7zE17kfqZ/04QUdfozbMB7vVVBw/MhYCM4PWNdco3DZwXHTWcXPkofQmO4Sb55AKpA2csOl4aeRRwPBby4IFlEmgjgEWj4X3ivYTrlBdU2JmTT78xRznvTn0O+xgC4L3GCDLe4G0J4RAHSO8YJTChE9U5SblJqkfRtP6v4JB8tOES/k5leUS7E8iSZeBdscBzG3A1tPXlPXAW8CLlXKGbwUMYQYQ3ZJ/ffay7xGTSKxUa8yGjR/3MYHt1ybLlvN7I5QL8a9x/W+0nL7TNcVl55faj9rRYak315LFojn+dUjAu4FPBrhpR+cTyfuVj9y07wJ5izG1ryAtaFshibSDGymDWOgx4t71AsQi3cqfeQmF5eH1w0TBAgrCM5PM0on6Fhx4xemmiX31mqrMDaXq+0TsyitztepsrQNcrmMixZ+kwSFuiVlw1yLrp9ocLTP4Z7WEuCMLwawWLHasCBoBOwFtFDarCHE/YB1wnTwApQWDyWEpAxccLSF83NHZRpw7TNIFfe5F/JJsKkt0WYJXmAZyHymaJhnLyDkaUzt164rk8G+i6SE06fSyYbsd8Hlx0uyJ52GzN4bgTguMbGBduk5xx/ZOkT2EDcOhxby+wBlk3WJ9tnhIH5Hpjh9dZXcAj4+fmm3Zpn7ZZ56IW3kRmwJjSjexrcMR4TJib35+YTTBTYUGXdL7p2qTWTpwk1hKFo/9VvzV07SBqD95SOWF+61eFyLuCXxj2vq9WEEVeZnkgYFa4QC5EUmCrn0fq6Ty5A/c0Md2uYkkngBq4xEkkj9SDkGAuhl4wo9BR4aMK7yg1saYx6PlA5gbSIwju71LkLnfGlvRkbciCheFrL+iL95WSJYMYQRaHcWj/KWbjDw2A96mcNOidewiCA4+dfOi2Gg64ZXclKywb0TKdsTsA/CLSJkKrLIT7YSesEqHDbcf228wP2H654enjRFRuEJ8uD+jZR56oW0kdtwWXCtdYvTNUnhMo1CP/3NQT1xNFAvd1M0cGGxmGIxd4OCbChaFTHHbdWXZmlbKTpvMHok3LXV0datsaB4Oo2gzVBPRBf3db/ebw5saQr9ZXDAL1tLIfdWNO2XHokQP/0xvYCQoZtDydjoI0CKynK1lynJP14g1kL3d6y4TBfkF847cUK/+XgonihkjF2JtsaMnKEmzKsYGQHZ0dalcT2UuExTRqMh6nUMXxr5nXOMuG9FSkfZaklDtGuHchiuIOo10pf8/62cobwv9EtA0O6OrPF49kDkYVpXI42Wm0Nu0TRCP6ABHNvbop2q6ay/Z0ODk1gQ45rha6ZbN22U+PcDcd8Re6ueKlbb3ApTPa3Es2vAmcZ2TceOh2S5+Yib0Ox22+ojpuHQtRe89wOXAw3Szzrj1oumARNro4bLb4gmCSRcH+ZmBQEd1Rk149VhByv6xP4zoRZWyVeYkgncp8flWP36Bo6uyNMu7JFiNi6w2FgX0s69rgdx0frdzaE+nKEXrwGw7yLFUDlXTQrrx1T8xGvOfEWfk5WXU7UOKPCRwKGHK3X8zrn5ETDHDnnHosBxP1CffHBbapTvyFJhAMHNQMZgrD5bF2w6KugJ4jOO5aNf7lLtPPDgwRBwIZ4WYtv2Qb3ZKwRJSneyhRKWFcWxWJqaHhwGCJYebrSTigVoZGxAFAUErW5QOXcE7LWmHfsBaxxryO+aRHO7qOutoV3jbV43OUuGq5GUZjchgu/iO7G+SPUOf9DBnS7yXoklrDsz27a+Xx/qKRj6Q4bBtfZpkeUJWReKc5mwQVIFYP0irQvxSurCvJrmcr+Sck5TA+JU1wrYf5G8Kdx/SgKh3xXyC2s2QtbB7/J/7rYcWEA+0eQZRDwszPWKLKHm1pfc5HM1mSaGc6BMBndkpCbMyUTayA3BrI2K47TcXLBJyJrEvQJ5YMFcON8TmODYmNTpkOL96dsHzTtPb9M4XrzJHeHgpj59ol2zg9Dm+58vn88Dq+3Q1saI2Z9sMo5VbxohM9aOID/ZfcxOYoYdWYV8X3dXj2jKA3/jpAIQBALV61q4a6LTqH2Auxdi8+v9yHrienNTmiEjWibtWnPMbHzroNn45tWPTW8fMh1nu30z3SC4A9saNUvQK1CfCWCC8/G9LabluPe6QPRTF1aa/CJ3XT4zLaIkMElhw5sHPNdFh3GKgjbURyISStjx8THtacg+vRZAslYnHiEfaFKFKFcoyS6UGLIdz9SQK2nvMiAcp1Qo9MIAgXWO1tQbchuC9dkPXELkSbhF54J9jYs5aMNwzhNS27+50SHTkFLAw/3d77viRdrIDaAZJHM0ApOL3/zxZnVRokkGBYktzFLiAQE997efmPVyAwetn4oEBBzTnvd+ekIJlAdg06HJMCSRIaC4Rv1ihlz4ItGgifXMXemMhLn/m4vMo3+01Dz5p8vNU3+2wqx4dIZ213C0696Yzj+TQRYflqg3hijBaDd1H5AwQY0V1oYXKBIn1d11FePu3rfppHnt+5vMr7//qXntB1c/Xv1/G9UVfvaUtwYKEdPdYZdYKX7fm26Q+s8sQT8Ln7o2Ctrd+7O7s9fQZefl726QNdh01ZrwePm767XLiabAe4C9iVtq78aGiK6+TAFLw37w6h3pAgLQiR79BDPCmvqyvEL/fosQm1d9WbKBhR6tsQCZj+EudjwiBdTH+ZIb3X56on62C649ew2vB8ZEzbzKy49pNzhzE7WGNEp8MBakldxGZo8w2UkkN1x/h7Y3m83vHtIbNxaQ2ML8rjufmquJIO88vd08/dcfmY2/OegIqDg0LIjyrX/dKkKhXnu0cVy/+j/rzAv/uNb85C/fMz+WxzN/Jd8hFgJNgNlHaHtkqM1eNl6TUJhw/dU/X6kj1h8RMrvvGws1A5NSAiy2Yh3MOvyyFsRmVmsH63UQQF3NPtohGVtozn5p6rhNiMv6DdUEtPci3d3VvCFDLD20dYSb70MIzI8YAH9ipA4EmGw3d6JgP3OOkYYFM6y3f2y4peHc5WtxxTr0e6g1Jv9FAgock6n9CsYzCZwrYQ8/sgZk11Ii0l8ocx+zL/OLRZH1kdXcn1gyWD8DBrkWxDojdfDBC8TkC2RHOPLEau9vkYYDJZoGAEHA+hCnvuupeSLTlpiH/+Dzx0O/v8Tc+dW52gfTzxsSD9JruckGGJkrprv/+sUEbhw0IYiNVkIxFXnLMaBtoVXc/ltzzbSFlebYntPmN0JOz/zNarP2tX062C9INiMaGVmcb/xos04Q7uogTnFRjwntd7dot/SXxDJkmjQz3e762lwlsK/+xUrz+H+52dzz9QXm5gen69gK0qwpMKb3pGaYynFCaLjUnDR5x73GxiDI2y3fdS0IjyA4ceC0b5E2bgzWggxGL5xu6FCrrfOs9z4gUaJ2QcXlDD8IC4GPEPezomMB/UOPC7EOqACLAyfkuLhHvPYIe0kzQmeNcSySEHg/ZSaQWCLg3xNCoO4Nd3MmA4uN/UDvRT/Qmot7MhzUsRGv9HO1sfYQJ7JioNArShXEhsLmB7xW3AfhcWvICFe9xt18rCmUaGRiEOWNz8CYyS/J1vregtKczx/FOWpQqJfA+6viQlrJjdY2aIdshGQCUsNSCtpz0AX7kFhWdW2xWf7ITLPy8Zm6cet3NJsPf7HLvPiddeadZ7bpLDCsAUoQICisLurMEKT8DbcN78dq4GZGY4GgsAwX3VVjVj0xyzz4e4vMY//pJrXEmF678PYpYp5X6RRb2h3RMZwx61oLKBsP8opkskNsWJ8IaJJqMl1wRIWsG1ZPkwjCq5q6hkBciDR11iYcrDuut5OH29QlEg6EDp01SCRxXTJo6A2HWjW2lAzgejqwudHpup4oKyQJKH/syzMnOzzjXvSInHbDWO2I7+43LAyUDOqNEgXrANnv+/SE3qeZsi7h4LgoX2Cgp5/wRmBDAF4ttHD1FVeyt0QB9SA41p7sXXIEBgpYnrj1I1035C+Noa9K7JNDpm0XRBSebOIC8kdJDyxn5WNYC68H2yDZWyGt5IbWTfsWL+GUCNC628RcRjOK9eZhI0MM1OFVTy3RjDE28ZmmDnNk5ymNtbz//A7z1k+3mHd+ts28++wO8+5zO8zb8vNbP92qfyPozoTb4VnDtc7t9t+aY+54aq7GyuhcwpTcaYuqNIZGbIPiV24SNBduCrnW+ogGhAMPjhkBjSuE8yUbDa3qWgbu1X2fNmi6Oj97gf58TjPf0Av9gEAmA9X3xpZ/M2vpeNFaPx9dj1u7sb41YowlVtTvbNIEpfDGtOkChbOUKlB2Eg6EDMKOBgPcm+66Uh/YdPisEGN0DT0I2KOHtzeZZhHsTKvOROChoWzh2D6fbFIBsosYkldCE24+OhVxX/tZPiQuMQx0oNzWkDOKTCRvEx39OUanbOFK0NRZS158XIV0Bjp98pwW5ycKJbnQz8lCWskNkxefdbLJDXS2desN7JVl5wVcURveOmjeE7Ii3kbW5Po3DqhgQssiSAxPMtgPqw2NnOww4mg8tn/ESJuT+jdcDWwM4hY33DFFB5FCkrgWSfrAIsPXnSiI6WEtogmzAXHzIpA43mvZLck1o2QCK5iiT784DoKY1lBeQCg1itVGY9hwcC0ZSDphZtnl9H8UIoQZmi5rqVlwAR68N5JF3S57kJufqczpBvuXuXNMRvCyhodnDTXl4wvMuOklZmio8wTaP27EjnMX1IPgtQZeD/Z3pHU52+LMwIu1/CVVIMZIKzUIyA9FZXmmeEz+5aSb/kBJpeaPVnt+XTzIGkUBG4im0krOct0O7/CvKeP6EK/GLRjOLJAN15vOPchpT8h+QsZuX33Ecd0GE7UpQ1rJjRRaaoX8RtUnAsoBcDNdCkhu+NYZU0Nm45YP6lUgQXj8ayblzrllgllw2ySd61U2rsBk541QC4lsIS4wQXoSHCAuLD7cj0yo5Wdu9mQDd+iBLQ6ZYqWhIOBSRUtEUGdqll40IIAhtO1i/VKD5afVcsNRZFwummU4IHbqabDa+LxwYOVOv2Gsk50VcrlgTZCcw3W+5Yt1gR7LH55hltxdqwSLMPCEfD9u7VNiyQ+Uhh4UJDEo0VJr6bEuED1dRtTaCJ0P64dShtvcaw28HnTkWShKXbkIRj91HPco7dC4RsmIbyYT3M8orwxa9evXyvKUCXFBDl7JGJw3ngWyAP2Ud84bt6QqcUn0FqAc4oXYs7FBLCv/VnyEPMqrCzXu7wX2AJPC80Wm+SWWoPygZCMz3WSjTMGwvxSEfk45WDzcJNz8kTKS4gEuQbIOaVzsufnCcOZku45DOXu6S2vHcB1Oml1uauZWal/IqSIMa+ZUqGZbOrZABGGe+qSx0NjgxRX5mlZeO3+smbl0nJktQpI5Sl7mfjLArLgtQsZoyFVTnI7saNjH957WXni46+gY4SdzYwFEimuKDDuvzct31C2u1u/0c2EEAQTDTY5gWf3yHtGa/WNVJD3MuLFae3WGWwjEzbZ9cEQFR3hcifcivBHAXB/333IOJOyMn16mAn7SrAAP2R8oL5AWCRd+7h8sa2KouHi8Cr+9QDyX/UhsLBzcNwgmXN79CToacFGR6NTWfLUVyWewHjc9MO2KBB3iLbyOC91zDTweU+aM0XuBxCZae/ml/aOUYRmUjs33tw4EXEMSs1A2vT6LmBcdZlBCEwVyaN+GBi0rwmvjB67jvJUTNUaOC9cL7Ckacu/f3KD72msrcz6MxkGOlFTmqazyVZQCgO9oE2sTwuQRScktH1+oewj54ec6zZG1bTjUpv1q/a4j+5/9WlSep1YgMi/Wc2B9ULzwnngqgfJxc5c7MjWIPAcDI3ljAFZNkPY+MYOrzH8eG8oL1EoxtwmSgBCXPVRnbrx3qqbkkwxCR4pi2XzUZRA3I03/tifnmNvlcesTs82tX56tsTVen7t8ol7kSG6ZRKCJClsaVTHASuF3knI0TiLfieYGIfnFqgYCidyQAE2eG2TXuuPaMbxZhKIfsbG5SQRBKw7f6NwYWG1kiHnVEEG+laEarv7Xh+OnmS1/Zy0DPeS7sdRJYa6uKQ590tXgOI7uPhXKwkyP9YaVQP0niU9e60pCQeXkIlUI+4P95HnuER78GxQ+iuMhdD+4Ao3rnggS3XsAAsWK3LX2mJb/kEATSXZAyljs/cslwsFx8b4pohR7JZ0Argv38ccv7tYOSViN4QpZUCjJNLUrqdGKL5JLlb2ro4zk+uCm9wNdpCjmLyz1z/zke/FMvP/znWbP+hOmrSXO8pckXMf+yAByI2MymDYbC9hMOXkj5CIGWzA04Ww5Di4K41GiZRuiudEtHe2d7DIsCNw3uAaTHhkNAxbJoR1NmuKOVUChKa4PfP+uWxJ3KZMTgpJ7wpBzDvpVHBM3MGvNOuOvxzLc+OYB8/6zO9TCiASaFqOAELAPBw2063c1azwjHNw7XDeuFQqVn7YaK4jf1Yh172d9cL5NR9s0lV5jiGkACVYHtzXqvggHQouCY+YQRrKgYgExp3K5PhAchOeH+p2nTKOsCwpaIohFLkLu7D8UDWKPZPtRtkHnlY9+uVv3T6TkGdZo+uLqy5ZWJKBAYeHh7fF7L8pPoyhzb/5ki9n24VElCoif1/0UPBf8nfuI68r+2vDmQbPu9f3qxYkErHP2bIkcVzQQiiGzGBnpBw7z+L4WzVWggw/hEoia64qyHek8+Jvz98jnGisygNySb7mx0TWYK0InaLIK7gOynjC9EYxBBmCmA66LBm3PIYdedYc5LbmcYlJuWrIo8YEnR3xHh9PJgbE9PVoa4fXQ7E5RHMjiamvqVKF2cGuTzmt6+XsbzAcv7Iqaho+AqK4tVTex181GgF7LBzyuHxoqqc2TRSFJJti/NBiunHQ12bog7Zs6R9zf0QRWssH3qUYtlomX5YhLErcppJ9M4LqnXo5nP6DY0DbPy/0aFCwn+89rz/V/sP9wOyJ0WYvG+rOatbnmlb3mhX9YYz74hdOfNlIMEEWAUqEZS6oMKfRBUCUW0vRFYz0TN1xwXfA2vKZdcTZpgtrJQ23mXEuXEh1KLPcz+xqFkN95nfgpREJS26v/slFnpEUqzgfEnClLYsRTeGcSL2Cd0jQCqz4amXP/Ui71yj9vNOve2K9eFF5DEadrEsfOObjngeeJ5D8SuZAdn0VY+1gxRDZ+au+0MNCeigJpBFuyAGHiUlz6wDQluSBg46x+cbem9BN3oXIen3QqwMbmpolqSciVombqJ//9PSGGNiU35sbhEp2xpFpLEF78zgbZ9N0aN/zKt1ZELCQNCoLTNKemTZiXy4TPd+Z55aky4bWjOALXWoOMO892acuxdsb8BNXa5UO4wXAZz1s16Sq3L1v553+3xuxax8iZqy0k5yadqDWGyQZCZsNbB8w7P9vuS15Y+ssemm4W3DFZZ2FFAskM7z23QzNww8F6F5WPMk/812XqGosooORQECJ02yH7z2utiTUuuafWrHx8lnx26MUkgSJfBO761/d57guAx4PaT0IAXnsVK+ql7643O3wSL1DqiPdCOsDna/S69PU6daA0ccYdyt4ODDk0irbpGkQ8O5ZEMeKcr/1wk9m74YRejyAgs7pCFCasPuLE9KvEIibJhUGikDQ9U7GYtF9nAGJAxhA/pUkE6xXJJdkfWJFkjyMDKHMKamTRIIH5h+XjClSxpG5Y4/JynUnIQ9mAA/BscC5e11cha//Ut5ardyHouqc1oQQg7GgsTOZfsjBxZpn2idRAaQx3K1obnRNwLZJEwsVIBejH56ZZDx3qv9mIoW0Wk3/X2uOXLRNubFpIISDIjDqw+aQG6rkJ6ENJHDFRgRUtoQTg36dgmhoqNEmvBynPuE4I1Lc2dqqLjusfFAhhlBYIKryjAjcbhP/hL3fJTd/tefMhLBbfXavZrskGpM46kzmGheAFNFcIduyU0XKTR/ZWJCuhpLf3khLlBhFMfuUhEAODdSmITzbYn319fTrm5KIokF5gL2MFIQS9asZcb4VfQglCvf2MWDCyv7z2nftgSCaTEJz912HOI0gDCmmAO/LWL88ys8Tq0RBADDcWLbpQSBi/pBa0h5IYDu5juuzgpifGvv/TkxqXo/6T3ymlwCq6IEQXeXbc54AoITbibUG9WgASpB6XPq9YhkHraLlelPWQ5IULmmQxeos653FSLWdkAu+JWEcpS31tJpRog9EEJXAIZC3OWzVZs5hiianw9cRj0DRYZF8NIonAYiOgTouv58Xi2PxevWpjXkDrRDiSxYVLwkX/sRNo8CNHOV1KeK1XLKRUGeauVRbkgTDi/RxnUHBdb35gupkpAl3jmmHgPLd+WK/uJ6/PxW2L8JwkFuZAgBsO8ozk2uO8T9a3CgF6D00dCLCXESYQm9deGFWQpUog42oGAsTbsFinLRwbeuVq9MgehnSaRXuPB2qRDeD+QzZgsa14ZIa54Y4aJeyY5ZW8nYYNlErgUg+SVczxISPc49Z7OvTQ1+Rv6mYOcBp4OSCGu782zyG2AN8fDqwuSjxoC0jIJwjYcqw1ax5+Du558Dfel2xZlXZyQyCjrXkVQsYKqu0X31MjVleFyZYNGAsgQrThUXIBtX7NR/tOGuQ6InDWvLpP/c1YRe8+vd28+8x21diJIfQHHS52i8WGS0A3dAi4WSAxNgmaGBoi4MbQ8ork7pe0gAJ4NGZ6cNKpPFxp4ebBLYg2i3vZCwTQSfGnSexAAFlHOjedZ/rXiYUD18uR3c3qOh5osCfQstH0ESReKCrN1XIGarIGAiwDmZM13JN+3yF7lH2N1Z8KpTIW4CHA9Xv7V+aYJV+oVQEfi9LcHyhAxGaXP1ynzR1Yl1QAi5MSpQd/d5G6U1GAY+VmwJ4mmWveqonm9idnaycbtwlCahDbQaed3FhlrDcEQyLArXHTfVMdV03xqJg3IBeOpBKSAxAEfhZUsoAQRqNmjhtxEMx3XFGk8JJSS5svXCcA4U2nC2bC9ag1pi8r0N7w4fMZjuXmuHV4j1fG4LUCrkdpdYFZet80c4cIFmrauMZeMQJcJfu3nNRkDa/yB4QKBd8TZpTp5w4UnI4Oznw9P62C646VgvtyoMF3UUPq5wbjeHHRErcNj18mE/Q8JXmBWI8fSDjArZisvp6Jgj2DdULxOiU/NDB3lJbQG+IEa14tZLlUZNXKx2ZpJmKkLMREgFzl2t78oNxDX52rmd14pxK5B9gnzPhDiVv1+Cy14lCOUgGaZMRy7GknNxZLyS3ejEk5V7TypV8gFjPJFJfnRoxBRALuBofc+pQYkmwlXwYaNb0qGY5KPMs1x3mGVA9vbzZrfr1fswhJ38bCI2hM3Cv8oPgs/N9YdnR6cV12xDn4LJ6TAXX9DNSChEDBMPuAYlyKiW/78myz9P6pmnFHrMpLACvxt3apVUvmqBen5BY6cS5iBgMJbjzcV/OWExP0jslgURMbJUu0v3s5HOoyi7Dc6s6R9/i5cvjbudNdZtvqo/peLzDShCG3ZEoOJFBIsFKmLqzybTvHMUL6xGC8jtd1XQ0kuFzsFeonl9xba259YpYqVxSl83qygEuQ+jI8ESsenakNBcheVOUtQSVD92BRtiZ4cQ+t+tJsjTNTh+nsydAbE4F8BhYs5QGL7q4R8p+tREd5BNc5XvkbDj7n8rnIdSBeGMtnpz1bEpBoQJYiiRKxQOMclXlm0Z01mmlFoWEiC4vWSFowVhOb7Yu/v0S/I9mAdD59+5B595ltjkD2AJsUNyv+cbQvOj2QDRl+udiwi2WDsZGx/iiAZj4cRH3jF2rF6pkbl3+9Pyg7WP/GflmXw4HjFJHADYbAw9JkrAqaK6RAxxcELRozRdpY4Or2iHBJOWdS7F/8znonldjj+Ih14FKii0pSbu4I4PpwfX/xj+u01MFLUNO3ccL0MhUKWHpeIIX6k5f36HzCcHAOeWJFPPQfFytpeyUGYM2jJL303Q2eSRisKe5eGhIkuwTAC7jS6T7xyvc2yH3W4XmduNemLRqrSo071BegbL7+w03qXvVLiokFeHUgEeKBbgtAhCiWGdnFZdWFmvlbWJKblHBJJLA/CIGQOUxCVMuJs6a1+bw2/qZmE+vbiRH26Zpx+6vSJP9xDtxHKAyQL+RI0hWxNeKcEKhmWco5DiQ4B/Y8ShtxU0oamOhBwwDOAeWb668KSugcuE+4Dnoq8n/Iba4/cgsFl/1NghOTFTgfagoxYlDgg97DGUFuFCUzIoYiyqDggtLiZ8Ftk7UGA03CDVoCTFg6TsSiCbGh1r9+QDPuiM/81n9bnvSNgfuQ6QKkBQdpmMoF59zYFF4tyvj7/FWTzLIvTpc1GW7WvLrXrH5xj5Ie2UUP/t7ihM+BOAjZZmjWydguKlxcchOrnZgrwgWtjy79FN57WT1e4HoTV9qz4UTolavBDY8gT1X2K/vwwNZGze7rHx/tD9zwWKgkoXgB4cDIHq/uHfRPz8oZZuqWVDuuMo89TsyW7z8gFqLfUpJgg/LE2qcCCGqd9NBEz0/vfYQAQ1Pvf0ys4YEtTZq27xc7jAWuMHX2H80espQcIFR3SkmsYY1EwXqQ4k8DCTKJabTd0dqlyi/rxvV0EkicJu7O8TueGies4xz/6PI8UYpHmhFpOAegZC3n4JIb50A2J54lSjAuifxzPQ79z4Om3SiyNN/Qloai2DLrDaWX9wUltP7ICHLjBl7/2n7z3vM7Qq9EBuyOn3fh7ZPVF47wxsWD8Eez6+6iO4cIFVkQhHxuvqPVRPNt44qkuh4rkrqM3/mft+vGTxYgKLQbmjNjISZj6bnoxBlveXiGaJqjzHpREOgSwI1L8PjJP11+2VVpYWFxbQEiwPJ2yY2UfxR3SobwyGjiXOo5LCYg5i71cg5OhqSSm5wHSuywYcP0mRFjGCJBldogSHvMDSCIKQeIBk4cLZ/AKIFMmhu7VgnWBbEXHmg+1KtR5Q9p0o4GlyeuPTaJH6lQWIuLAm2uWzSN7vPeLsNw8HnOI/SCD9DC0MbpX5csnYKPIcmEkgDcLG42IK+zFmi9yfouCwuL1AKB7ybcYc3gfeAZy1YzozOc2AB8hXWGoYCnASUclyM/U4qCtebMsUzuyWQIuZHCnhXZhSh/IoW1ZkGlTq4me65/fI34FIXMk2aWmzr52+K7pqi7jiSChkNnjA4Y/ckWjWHQJspL4KNBUAqQk++Ms4EcooHPQSPBtUpLKUxyJdCQ6e0CbYV0Z0iW7LVkgu/r7XYGlrrZkpAaGWi4MXBjWVhYWFxPyAhyg6QgLtyNfkB7mb6o2ix/pE6zmcJBDI73EABGQygsyxULb4y29Xn4D2400xePNUfEanrh79dosS+CP5zgiNFR70P3CHzHdD2IBtLQ6SDw0nc2mF//YKPZ/O5hJdDLHftxJ8hnaUPfHc0m0vDAeAG5quU2fKhasrgtgLpoL1wc8CxHCwsLi0xDhpAb7jQnDd8LWKtYZIvEGmN4XizAGiTzbtUTs81dvz1PY3Ov/3Cz2fTuISW4/nBIVshNCA7/NgHRaCDDcuNbB8zBrY1mx8fHtGHoM3/9kfm5kCidRyBSbeu185TZs/HEVd+ZDGBlklFGAJmgLHFGTF3Imx56WJEWFhYW1xMyx3ITQvEbfUN6OEkTNDSOFzmjsjS9n04DuOzef36n9nTEjdgfZBwy203dklHIjfRXsr92rWsIveKANGxiayR3vPaDzebp/71aO30PVOHuxYuO5YbPGsuNIDPEBqlprZucr4WFhcX1hMwgN7E4EMiQiheow6FgkHTRuCHWH+7KBbdP1hRq3IlrX92nhNO/Doi4FVmVpOWSjusHXI3UV9E1hOzM/sALSKyLz4U8Tzec0/ZQfOdAgPICLFK+UzOo8hz3LrUxGnezlpuFhcV1howgNywOhLKXW5KsINomUcyXaDYN/54CQYqeC8tGmRYhHcZokAzigtgdLlK13E77W25Ocsgx7WgdsX9jiOgGMmvxklhuZGJCuFieZHuCzz4bIpZbl3VLWlhYXHfICHIDpOF7teBiphod4ZPVoBOCGze91JnHJJ9JsS3Wm9uwlXR6PQ5ZGUZiQHLhoJ6OcQ3M2qLAMt242N1nLsixuuUAl8eGCJl2iOXm1W/RwsLCYjAjY8htaKgTRzgYNuoXi4sXZGVqu66yXK2gh9zomgAoS6CmBAvuQmePElx/y4efj+xs1vlSuBrTCRJxiLHRQohMSY6N/oxkngIMxY5WEkr0VwsLC4vrBplDbiKUITcEdn+Q3h/+WjJQVVOidXFkFtKNXEfJCDlon7YCITd5nRR7at36uxMZWcLIflpnpSqWhbXJOuCipfcdbcewPOcIQTO8c9kX60LdxbMcy80dhDmEbus0T7ZuSQsLi+sLGUNuVKjjDsQK6Q9cgJBMskFLqsmzy3U+EaNlyG5ksu2xfadN07E2jZGRqKGWT4gbSNrYs+G4ObSjOSkNXL2gJC8kRY+9MRMKtSdi7YIKzRa94c4pZtmDddpHksGJKx5zOorTOR+yw3pjrdyecpAyA05ttqSFhcX1hozoLQkQyoy7eOEf12oKvntYdE2/86m5ZlrA6bWxgC7lr/7zRq1RY3YY9XAkf+BupEkrLsr7v3mDmbN8onYvObStybz77HZzZFdLwg1cISBtrSMkSwIL9XW4SyE27e4t5MYz1hqJNhA/7lLHdcuk7T4lWx503Sb2hxuV5Jg964WAtzeLxWe0w/lTf7HClI5NPCHHwsLC4lpBxpAbmX5kHj737Y/NKSEWNwMRQiO7cfFdtTpYEeskWYAMfv39TWb76qP6cziw7m798hwdJ/OZWD+vynsZOxN4SrdwCQSGWxXL1OlCTpG1024sO18sNEZUjMkzRWNyldBwiUJgjjt2iLoUKSEgWUQ7kXQLiQmZ4S5taz5vzjS26zMTDSg7UMLr6lXyhcvoEv7kny7TuV3JXDsLCwuLTEbGkBuHcaax0zz9Vx9qDKx/en3+6GwdbcNUXHpFJktIQ6iMh1n32j5NKIF8tLuHkMJFsYSwrhbfU6uWI6Txb//zQ00+8Vwy+TcQGEQGKXGMWlZAcbpaXtmmsCRHj9990ECU+UT4PbVcACKTY+JnLDHGX+CWpRC79VSnWpO09cKNyuwytR7lUPwuIZYalt9j/3mpdnhxOpdYWFhYDH5kDLkBiqaf/7tPzKGtTVcJbCYxM7mW4YqUB0RsshwDtn5Qr7PkGEVTVVtiJtaVKlHhgiT+RlYlQyEhkZ/+jw90ACTF0Yyc4BiwjiBBiIzaOe3cLRYYs8mKxSJjXhcdVpi3BPFxXmQ18oDM+L2zrdu0tXTq5ORzLedNmxBZa3OHkv1Z+RlLLV7g7mTo6vRFYzXhxMLCwuJ6QEaRGxbKK9/baLavPuKZ4UdMqm5JlVn5+CxTMdF7gnGsoH0WcTS+m5louEDPtXSZtWLNffTL3WbKvArz5T9eJhbWEPP8tz82ezY2qKu0pNKJ0ZVVFeg0cMiMEQ46PTo7NCiQUxD2c0NdWGMazzt+TntS8uB3yhH4fqw0t1uK0J5wrNMfMl5gueWXZJt7v75QyK1KrUgLCwuL6wEZRW6d5y6Y95/baVa/tEctm6sgJDEye4SmvdMEmTHqieLA5kbzzjPbTHurkNsX68ySe2u1ZdXm9w7raPuq2mLz5J/coqR1bF+LZlBiRZLgQewM96O6ItWKc1hM42KdF9X6IsGDB6PXiYt1dRATcxJAcD9+xvh4OVW15niOcjncCeN8L4XvECmJJiSfKMHyLMdaIM+4Q1EI8ouz1WpLlrVrYWFhkenIKHIjbX3da/vNWz/dooIfIMRJrtBu/aNItBim4/Hn3zpJ098TBTVr7z633TCYlBT7RXfWKPns3dBgnv32alM6tkDIbZl+p0u4WGUsG+7CrvYetbooGWht6jBnQg9ad/VcuChkSMf+S2qRaTwt5IpUq84DWIWcIySeJcQ0Us6dZ9ya+ijKNnlCWnliJeYX5WjSyzD5NxRvE7/jmYJ44n+sHYQLIdpMSQsLi+sJGUVuWDwHtzaZ9W8cUKFNI+Wc/CyTJ5YJgp1nSA6LiZ/9RuQEBae+8a2D5mOxFPnM5Q/PMLNvmaAkxIy2H/zZO0oyD//hjaakMk+TOLC+sOzIVmQkDjEypxbPzWa8ZHq6ITUn2eMKCL+QtEK6P4XWZEXiKuR3piKQQclrdGTh3HlWi0uJaoiWJhDbg7Qo1qaPJERrecvCwsLiSmQUuWHVkGbPpGoEOVMAsGQQ4vozlokI9mQB1+CbP9litrxfb6pri82KR2eayXPGqHuQjiU/+NbbSmRYiJAfVholA/y7nlBaPmTmpt1DNLgKs4WgHJJyCEpJGiITYta6NohMrDF9FvLScxWywvLifPVnOU/nObm1fRYWFhbXAzKK3FINRta8/qPNpn5ns5m3cqJ2/CgfV6h/I0b23N98rHG2EdnDlWxw7eHuc+rUhJhChAVxOY+RSljEuZyibGe6OD9rfZtrdckD1yExsGSStYWFhYWFg+uW3IirUQKAWxJL7OYHp5ub7p922dVJHG3NK3u15k5diFhZkJlaXVlCWHQWCT3jVnR/F0LT+Bb/WX+hhYWFRVowKMiNM6B/IlYVpBINkJlbAtB05KypnDxaezXOWDrusiVFe6szYr0xCsd1H2KFkexBDMzCwsLCInMxaMjtbEunxr+Ic+EGJGtQa830706aPYkiWGS4I0kiOXHgjMbKFt05xdx437SklBZYWFhYWKQfg4bcGutbdXgo7kHS9wtKRukwUggOUqN9Fh1QiK9t/fCIaWvuUAtsQl2pZklOmVepCRwWFhYWFtc+BlXMjVZan7yyV6dS0/aKNli4GSE2EkSYAkA2JokcJHjQ5eTmh6abmvmVmo5vYWFhYTE4MOgSSg5saTSfvLxH6+VIGgkHSR55RSPNzJvGmxvumKIjdch+tLCwsLAYPBh05GZhYWFhYWGDTBYWFhYWgw6W3CwsLCwsBh0suVlYWFhYDDpYcrOwsLCwGHSw5GZhYWFhMehgyc3CwsLCYtDBkpuFhYWFxaCDJTcLCwsLi0EHS24WFhYWFoMOltwsLCwsLAYdLLlZWFhYWAwyGPP/AXx9Q9k4/PTxAAAAAElFTkSuQmCC;" vertex="1" parent="1">
          <mxGeometry x="860" y="186.82" width="89" height="26.36" as="geometry" />
        </mxCell>
        <mxCell id="Vv6Uo3IeAN1RbjcQnyYQ-46" value="" style="shape=image;verticalLabelPosition=bottom;labelBackgroundColor=default;verticalAlign=top;aspect=fixed;imageAspect=0;image=data:image/png,iVBORw0KGgoAAAANSUhEUgAAANUAAAA9CAYAAAA6VyxsAAAAAXNSR0IArs4c6QAAAARnQU1BAACxjwv8YQUAAAAJcEhZcwAAFiUAABYlAUlSJPAAAAsrSURBVHhe7Zx/cFTVFcfPYhimYKC0arEh9sdYtEBrqYLEcdoJpIlMR5i2gf6hTIvoTGUER2gFwZZ0BhlxpjCEFu2AWAb+MbFWLG2kFfyjFWiwxnb8ybRUIQHBDkwSgyZgt+/79t5w9+S+H5vc3X0r5zPzZvfdfe/tffee773nnPt2U5VfmpwmQRCcMUy9CoLgCBGVIDhGRCUIjhFRCYJjRFSC4BgRlSA4RkQlCI4RUQmCY0RUguAYEZUgOEZEJQiOEVEJgmNEVILgGBGVIDgmmaK6dDjRgkmU3lZL6Vu+oAoFoTRI3u+pbq6g9JKvE40bqQo82k5RatMrRP86owoEIbkkR1RXj6X04q8RTblCFVhoedsT18tE759TBcLFwKQvX0s/W3m/2svmjTffooaH1qk9ol9ueIQqx1eoPaLe3j6ad/sCtVcYiu/+ea5e+oEbfVcvVFBg1ucp3XSr7xoKFw+jR5dT1Y1TrdtET3CcKdd9tX8rBkUVVXrB5IxIPLHEBiLU53muoiAkjeKIypuR+mccJCUGgxdzpdfeTOmN1dnxlyAUmcKKCkLwROBUCFqgiMcGK1Ah0bz2xpv0/fl3+NvrXgwVRl9fHz31u139W3tHh/qkcBQmUaFT5HOvUQURIBHxxGuUajninee5enMnqA8i8M97lVLNh1WB8HGjaecTNH3aDWqP6GDrSwVPRESR/5lKJRfiCgqCSM37vffqjUgQyaY2f59eeU8dEQLEu3hKvKSHIOSJvM5UyM7U33MbNVzeSl0jP1KlAXiiSTW2ha9FITGxxBPNuFGqwE767S7qPHyGxq45qEqi4Wnbru5uumvRvf77ud+dQ/XfmeMfg0xUV1c3HWg9RNu276QDfzvkHxMHtEftzGqa7r3iWhpcY8/z+3x3BdfmLPzhfP88E7hCNjCSp9MXupSnnDW2NDXuB/UIg5+HOjc/vav/3nQ2Luh7x1d8lhb+4PbANviTt7V3HFelA4maqZBSL7vkErWX4UdLlql3A0F/1s6cQXXfmkFV06b6+0D3cfPTz3h1esEvi0veRfXkjm2+ga5ve5Yen/Af9ckFUu/2EEFMf43v+yL7R3AJeQzVc47O7j9Op0dmyisf+Iv/GgddVxMYLgzI7HwODOrna9dZxaBBR2351Ub/O8LANXAtXNMEov7Fw2vUXoZZc+b6sYYJ6tmyq1ntZcA1J99wk9q7AIS6monKdk0ObycYXFd3lz/omHBjRxusXrncv5cwUN/Ht++gDZseVSXZxBHV7G/PUnvh7mFdzQxavWq5L/Qw0CY/XvHTyLbRFCRRMbq8nBq+cRsdoIVUdXRMplDFTTRvd06CAinETXARn7sg0nMvHqd3D53sF5QLYDxhggI2gzfB+fv37YkUFIDh4Vrc2G2zIUZ6jq0M17TdA0Zlkw5vdohrNCa1NdUDBMVBHdCWUYICOPa+xYtC29QFDZ6YtmzeGCkogPaLYwuagmb/xo+7kpqmLaam07dS5cp/+OIYNBDl2lZK3fsCvbfvKJ30is4PL84KAUY8m8HAQNBxeOUgi4VRFMbMwSxiXg/uED+OiwLYyoBNbFzkcHXyBWYXm0HinoLaAPcPw88HuPYdnguaC2F9ySmKFVZNvI72Nz3jj8hxKhlK2ynqHVGmdtzT3f0+LVvxIN1UXedviLNsRoDRlQOj4CMh3CW4Y7fMrvfdkirvmnAz+TXhKpltw43edIE0QbMhFxsMvLz8UrWXIZfY0AbaCQKB24YNsQiAAU+8NjtJhePQlrh33QZwPXm6HIYfZybJBbQp2paDOqFvr5rwlcB+zsSD89VeMMUZ2hUYkeEaRbkPxQKGUlVd68c4mC2wIZiGEdga3DQAvOf3BUHduWjJgPgLBn2nSopo0PlmB3Kjx+fm6G8TioYL0DZzDUVUaIu62d/zBbJh02Z/03HhUjbYQDhoA56MgOuJ89HmJg2rVqh3bkCb8oEcyRZ8t07S6H6um1OfJXTUbQw710ZRRQVwg+vXrfED7DhxRyHZ+psdgQkIW2bLfJDTdi9LV6xS7wYCo0LnmiBe0UTFVVwopnFyAdriKW7kuYC2sJ2PNqhgM82y5Q8GtinK13uCNLHNyEMBWT4T3PtSr042UB/UF4MhZq5J11dZ+52TV1HBEILcJQ46HcFg3OCxEBwMiTOigvq6mpnqXQYcDzcIRhK0HWvPTtiYQoDR8nY0xcGF0vDQw+pdBlN0ruMpZHdtTGd1gpFiNrXdu946O7vU0RkwILgcbLkrunX7TvXODvoNM2vUUoNJ3mcq7S7Bz+ZTuw0E/c/tesqLUe4eME0niaiRndcdAkHAHrbZ4jJzgAmLq0zDg8vC0/JadDY3cSiuXy6gTWz3bW7wWvKFTZyvRwyOg6Fg7h/8bPjd3MWxgcaHgcUJCj/umC5lUFzFhXJQHYfgW6MF6DqeCsOcaS8mChpTYXSH/4psl9nhFwOYpXHPuW6mwduMHyLhQtGuinm8FqDreCoM7iIPtg2CYrBccXWdKIqSqEBnI9uCVHUcl7AU4U9HH21v9+85180kKK7iQtFi4jEhxOc6ngqDx1p4fMp2j1FbVPwaF9t1EG5EkeuMWxRRaeD3I2Wd67NVpcCeP2cHttpNCyNOgoaLABlCM7bCyK7hMxueuStkPKXdUA1mSyyjhIE2wHH5wmwfgGWPsHZHfZGZxhZ33ayoogKYkl2NREkCxs9nYWQ3gzoFMwgSNK++tN9/RMdMp5vYRGAaIf/cNCLbd+dTVOhXbsT33XN34OCCcmR/0QZ4DWqDoaAXpTVou6CMM/oE9QWoGxbztz7a6O+HUXRRDZXeL6pnCRMGBgusc5mgAyEcPEmiU8gwHIgIgsPn2PAUwtbNjVmPKmmiUrvc5QsTTT7jKQ0SVCa4P4z6euAw2wDlWnBwy9AGtozoUIB3xJ/cwHeiX1AHzEbIPJt9YrKhMft+bJSsqP73iTI6XT+BTt1VnD/3iAMMio/U6CS4FDqFHCQe/ZMKDsTKjcJk4EwVLKp8xlMa1Ac/KeHogSOsDXCfXJQuwIIu9yL0YIbZCEIO6hMMaji2pvqbvjttO64kRdU583N04idTqef6z6iS5IKFQy6sKGCEQav8gMcqGtv3wKiDkkE87ssXeAohzlKKCeJsJCnyAdxSXDuXJBnaVj9NgZmt5+xZolTKOtOXlKg+mPhpOnH/NOqqucqfqUoBzCzowDiZTozMWG6IehQmyKXLubwAM5UGg0Scp2vwOdrK9oykSyAsJMmixI4+w4ML6ENdHzz5cvlll3mD0l5rLJaIP9PEdAs/lpN54nkznR87wnP1rokdPw0/0UNjd/+bRhzpVCXRYErX/rwGDR/WsTw9HXU8wDl4fKdyPB7ArfBX9I95hoTZB+fHwVZXEPT96HhzEVkTJLYwBtNOHJxf68VMeDgVvxTG8sOx9uPe7LQvsg1wLuqgwfea55g/UNQ8+4cW9c4OrocYDv2h7w3XRN9g4LHdm24HWxsmWlTrH/s1Nbz1R+qO+f9+wz78iEbvfYfKc/zRoyC4JNHuX19leWxBlb/YQVc+0iqCEopOyafU4eJBTJ/cfYSGfXBelQpC8ShZUZWd+ZCu2PJPfys706tKBaH4JEJUufyLqB83PX/Um50O5ZSIEIRCkQhRYZET/1EQtZ4z6uWTvqs3Zu87qkQQkkdi3D+kMLEWYFvLwIw0rrGNPtV8WOImIfEkIqXOwRoAfqD43zFEj7X8lkb9HX9AJgilQSJFJQilTMmn1AUhaYioBMExIipBcIyIShAcI6ISBMeIqATBMSIqQXCMiEoQHCOiEgSnEP0f4WrL/hGdAD4AAAAASUVORK5CYII=;" vertex="1" parent="1">
          <mxGeometry x="750" y="194.82" width="53" height="15.18" as="geometry" />
        </mxCell>
        <mxCell id="Vv6Uo3IeAN1RbjcQnyYQ-47" value="React/Python" style="rounded=1;whiteSpace=wrap;html=1;verticalAlign=top;fillColor=#FFFF66;strokeColor=#FF0000;fontColor=#4277BB;shadow=0;dashed=0;labelBackgroundColor=#ffffff;gradientColor=none;spacingTop=3;arcSize=50;" vertex="1" parent="1">
          <mxGeometry x="150" y="470" width="120" height="33.5" as="geometry" />
        </mxCell>
        <mxCell id="Vv6Uo3IeAN1RbjcQnyYQ-49" value="&lt;div style=&quot;&quot;&gt;&lt;font color=&quot;#4277bb&quot;&gt;&lt;span style=&quot;background-color: rgb(255, 255, 255);&quot;&gt;STORAGE&lt;/span&gt;&lt;/font&gt;&lt;/div&gt;" style="text;whiteSpace=wrap;html=1;align=center;" vertex="1" parent="1">
          <mxGeometry x="700" y="330" width="120" height="30" as="geometry" />
        </mxCell>
        <mxCell id="Vv6Uo3IeAN1RbjcQnyYQ-50" value="&lt;div style=&quot;&quot;&gt;&lt;font color=&quot;#4277bb&quot;&gt;&lt;span style=&quot;background-color: rgb(255, 255, 255);&quot;&gt;OR&lt;/span&gt;&lt;/font&gt;&lt;/div&gt;" style="text;whiteSpace=wrap;html=1;align=center;" vertex="1" parent="1">
          <mxGeometry x="125" y="470" width="30" height="30" as="geometry" />
        </mxCell>
      </root>
    </mxGraphModel>
  </diagram>
  <diagram id="I8ilbAUvmHpFINPy1JMx" name="Streamlit/Python Arcitecture/Streamlit Cloud">
    <mxGraphModel dx="1221" dy="620" grid="1" gridSize="10" guides="1" tooltips="1" connect="1" arrows="1" fold="1" page="1" pageScale="1" pageWidth="850" pageHeight="1100" math="0" shadow="0">
      <root>
        <mxCell id="0" />
        <mxCell id="1" parent="0" />
        <mxCell id="LuJFtX7R_HCq3BQHiekh-1" value="" style="edgeStyle=orthogonalEdgeStyle;rounded=0;orthogonalLoop=1;jettySize=auto;html=1;" edge="1" parent="1" source="LuJFtX7R_HCq3BQHiekh-3" target="LuJFtX7R_HCq3BQHiekh-10">
          <mxGeometry relative="1" as="geometry" />
        </mxCell>
        <mxCell id="LuJFtX7R_HCq3BQHiekh-2" value="" style="edgeStyle=orthogonalEdgeStyle;rounded=0;orthogonalLoop=1;jettySize=auto;html=1;" edge="1" parent="1" source="LuJFtX7R_HCq3BQHiekh-3" target="LuJFtX7R_HCq3BQHiekh-13">
          <mxGeometry relative="1" as="geometry" />
        </mxCell>
        <mxCell id="LuJFtX7R_HCq3BQHiekh-3" value="Resume Services" style="rounded=1;whiteSpace=wrap;html=1;verticalAlign=top;fillColor=#FFFF66;strokeColor=#FF0000;fontColor=#4277BB;shadow=0;dashed=0;labelBackgroundColor=#ffffff;gradientColor=none;spacingTop=3;" vertex="1" parent="1">
          <mxGeometry x="100" y="120" width="170" height="31" as="geometry" />
        </mxCell>
        <mxCell id="LuJFtX7R_HCq3BQHiekh-4" value="ChatGPT" style="rounded=1;whiteSpace=wrap;html=1;verticalAlign=top;fillColor=#d5e8d4;strokeColor=#82b366;shadow=0;dashed=0;labelBackgroundColor=#ffffff;spacingTop=3;gradientColor=#97d077;" vertex="1" parent="1">
          <mxGeometry x="380" y="140.75" width="120" height="31" as="geometry" />
        </mxCell>
        <mxCell id="LuJFtX7R_HCq3BQHiekh-5" value="Bard" style="rounded=1;whiteSpace=wrap;html=1;verticalAlign=top;fillColor=#FFFF66;strokeColor=#FF0000;fontColor=#4277BB;shadow=0;dashed=0;labelBackgroundColor=#ffffff;gradientColor=none;spacingTop=3;" vertex="1" parent="1">
          <mxGeometry x="380" y="181.75" width="120" height="31" as="geometry" />
        </mxCell>
        <mxCell id="LuJFtX7R_HCq3BQHiekh-6" value="APIs" style="rounded=1;whiteSpace=wrap;html=1;verticalAlign=top;fillColor=#FFFF66;strokeColor=#FF0000;fontColor=#4277BB;shadow=0;dashed=0;labelBackgroundColor=#ffffff;gradientColor=none;spacingTop=3;" vertex="1" parent="1">
          <mxGeometry x="380" y="221.75" width="120" height="31" as="geometry" />
        </mxCell>
        <mxCell id="LuJFtX7R_HCq3BQHiekh-7" value="" style="edgeStyle=orthogonalEdgeStyle;rounded=0;orthogonalLoop=1;jettySize=auto;html=1;" edge="1" parent="1" source="LuJFtX7R_HCq3BQHiekh-8">
          <mxGeometry relative="1" as="geometry">
            <mxPoint x="495" y="156.75" as="targetPoint" />
          </mxGeometry>
        </mxCell>
        <mxCell id="LuJFtX7R_HCq3BQHiekh-8" value="External Source Integration" style="rounded=1;whiteSpace=wrap;html=1;verticalAlign=top;fillColor=#FFFF66;strokeColor=#FF0000;fontColor=#4277BB;shadow=0;dashed=0;labelBackgroundColor=#ffffff;gradientColor=none;spacingTop=3;" vertex="1" parent="1">
          <mxGeometry x="525" y="140.75" width="170" height="31" as="geometry" />
        </mxCell>
        <mxCell id="LuJFtX7R_HCq3BQHiekh-9" value="" style="strokeWidth=2;html=1;shape=mxgraph.flowchart.annotation_2;align=left;labelPosition=right;pointerEvents=1;rotation=-180;" vertex="1" parent="1">
          <mxGeometry x="250" y="160" width="120" height="80" as="geometry" />
        </mxCell>
        <mxCell id="LuJFtX7R_HCq3BQHiekh-17" value="" style="edgeStyle=orthogonalEdgeStyle;rounded=0;orthogonalLoop=1;jettySize=auto;html=1;" edge="1" parent="1" source="LuJFtX7R_HCq3BQHiekh-10" target="LuJFtX7R_HCq3BQHiekh-16">
          <mxGeometry relative="1" as="geometry" />
        </mxCell>
        <mxCell id="LuJFtX7R_HCq3BQHiekh-10" value="Streamlit/Python" style="rounded=1;whiteSpace=wrap;html=1;verticalAlign=top;fillColor=#d5e8d4;strokeColor=#82b366;shadow=0;dashed=0;labelBackgroundColor=#ffffff;spacingTop=3;arcSize=50;gradientColor=#97d077;" vertex="1" parent="1">
          <mxGeometry x="40" y="180" width="120" height="33.5" as="geometry" />
        </mxCell>
        <mxCell id="LuJFtX7R_HCq3BQHiekh-11" value="GCP" style="aspect=fixed;perimeter=ellipsePerimeter;html=1;align=center;shadow=0;dashed=0;image;image=img/lib/ibm/data/data_services.svg;strokeColor=#FF0000;fillColor=#FFFF66;gradientColor=none;fontColor=#4277BB;labelBackgroundColor=#ffffff;spacingTop=3;" vertex="1" parent="1">
          <mxGeometry x="595" y="460" width="60" height="60" as="geometry" />
        </mxCell>
        <mxCell id="LuJFtX7R_HCq3BQHiekh-12" value="AWS S3&lt;br&gt;AWS Storage Gateway (hybrid support)" style="aspect=fixed;perimeter=ellipsePerimeter;html=1;align=left;shadow=0;dashed=0;image;image=img/lib/ibm/data/data_services.svg;strokeColor=#FF0000;fillColor=#FFFF66;gradientColor=none;fontColor=#4277BB;labelBackgroundColor=#ffffff;spacingTop=3;imageBackground=#CCFF99;" vertex="1" parent="1">
          <mxGeometry x="595" y="345" width="60" height="60" as="geometry" />
        </mxCell>
        <mxCell id="LuJFtX7R_HCq3BQHiekh-24" value="" style="edgeStyle=orthogonalEdgeStyle;rounded=0;orthogonalLoop=1;jettySize=auto;html=1;" edge="1" parent="1" source="LuJFtX7R_HCq3BQHiekh-13" target="LuJFtX7R_HCq3BQHiekh-23">
          <mxGeometry relative="1" as="geometry" />
        </mxCell>
        <mxCell id="LuJFtX7R_HCq3BQHiekh-13" value="React/Python" style="rounded=1;whiteSpace=wrap;html=1;verticalAlign=top;fillColor=#FFFF66;strokeColor=#FF0000;fontColor=#4277BB;shadow=0;dashed=0;labelBackgroundColor=#ffffff;gradientColor=none;spacingTop=3;arcSize=50;" vertex="1" parent="1">
          <mxGeometry x="180" y="180" width="120" height="33.5" as="geometry" />
        </mxCell>
        <mxCell id="LuJFtX7R_HCq3BQHiekh-14" value="&lt;div style=&quot;&quot;&gt;&lt;font color=&quot;#4277bb&quot;&gt;&lt;span style=&quot;background-color: rgb(255, 255, 255);&quot;&gt;STORAGE&lt;/span&gt;&lt;/font&gt;&lt;/div&gt;" style="text;whiteSpace=wrap;html=1;align=center;" vertex="1" parent="1">
          <mxGeometry x="565" y="310" width="120" height="30" as="geometry" />
        </mxCell>
        <mxCell id="LuJFtX7R_HCq3BQHiekh-15" value="&lt;div style=&quot;&quot;&gt;&lt;font color=&quot;#4277bb&quot;&gt;&lt;span style=&quot;background-color: rgb(255, 255, 255);&quot;&gt;OR&lt;/span&gt;&lt;/font&gt;&lt;/div&gt;" style="text;whiteSpace=wrap;html=1;align=center;" vertex="1" parent="1">
          <mxGeometry x="155" y="180" width="30" height="30" as="geometry" />
        </mxCell>
        <mxCell id="LuJFtX7R_HCq3BQHiekh-25" value="" style="edgeStyle=orthogonalEdgeStyle;rounded=0;orthogonalLoop=1;jettySize=auto;html=1;" edge="1" parent="1" source="LuJFtX7R_HCq3BQHiekh-16" target="LuJFtX7R_HCq3BQHiekh-19">
          <mxGeometry relative="1" as="geometry" />
        </mxCell>
        <mxCell id="LuJFtX7R_HCq3BQHiekh-16" value="Streamlit/Python Code" style="rounded=1;whiteSpace=wrap;html=1;verticalAlign=top;fillColor=#d5e8d4;strokeColor=#82b366;shadow=0;dashed=0;labelBackgroundColor=#ffffff;spacingTop=3;arcSize=50;gradientColor=#97d077;" vertex="1" parent="1">
          <mxGeometry x="40" y="350" width="120" height="46.5" as="geometry" />
        </mxCell>
        <mxCell id="LuJFtX7R_HCq3BQHiekh-19" value="ChatGPT" style="rounded=1;whiteSpace=wrap;html=1;verticalAlign=top;fillColor=#d5e8d4;strokeColor=#82b366;shadow=0;dashed=0;labelBackgroundColor=#ffffff;spacingTop=3;gradientColor=#97d077;" vertex="1" parent="1">
          <mxGeometry x="260" y="357.75" width="120" height="31" as="geometry" />
        </mxCell>
        <mxCell id="LuJFtX7R_HCq3BQHiekh-20" value="" style="edgeStyle=orthogonalEdgeStyle;rounded=0;orthogonalLoop=1;jettySize=auto;html=1;" edge="1" parent="1" source="LuJFtX7R_HCq3BQHiekh-21">
          <mxGeometry relative="1" as="geometry">
            <mxPoint x="380" y="375.5" as="targetPoint" />
          </mxGeometry>
        </mxCell>
        <mxCell id="LuJFtX7R_HCq3BQHiekh-21" value="External Source Integration" style="rounded=1;whiteSpace=wrap;html=1;verticalAlign=top;fillColor=#FFFF66;strokeColor=#FF0000;fontColor=#4277BB;shadow=0;dashed=0;labelBackgroundColor=#ffffff;gradientColor=none;spacingTop=3;" vertex="1" parent="1">
          <mxGeometry x="410" y="359.5" width="170" height="31" as="geometry" />
        </mxCell>
        <mxCell id="LuJFtX7R_HCq3BQHiekh-22" value="APIs" style="rounded=1;whiteSpace=wrap;html=1;verticalAlign=top;fillColor=#FFFF66;strokeColor=#FF0000;fontColor=#4277BB;shadow=0;dashed=0;labelBackgroundColor=#ffffff;gradientColor=none;spacingTop=3;" vertex="1" parent="1">
          <mxGeometry x="410" y="405" width="120" height="31" as="geometry" />
        </mxCell>
        <mxCell id="LuJFtX7R_HCq3BQHiekh-23" value="TBD" style="rounded=1;whiteSpace=wrap;html=1;verticalAlign=top;fillColor=#FFFF66;strokeColor=#FF0000;fontColor=#4277BB;shadow=0;dashed=0;labelBackgroundColor=#ffffff;gradientColor=none;spacingTop=3;arcSize=50;" vertex="1" parent="1">
          <mxGeometry x="180" y="260" width="120" height="33.5" as="geometry" />
        </mxCell>
        <mxCell id="LuJFtX7R_HCq3BQHiekh-26" value="Tools IntegrationTBD" style="rounded=1;whiteSpace=wrap;html=1;verticalAlign=top;fillColor=#FFFF66;strokeColor=#FF0000;fontColor=#4277BB;shadow=0;dashed=0;labelBackgroundColor=#ffffff;gradientColor=none;spacingTop=3;" vertex="1" parent="1">
          <mxGeometry x="410" y="450" width="120" height="31" as="geometry" />
        </mxCell>
      </root>
    </mxGraphModel>
  </diagram>
  <diagram id="ZAgZMHCQD2d8OEAKhuZb" name="UI and Interaction">
    <mxGraphModel dx="1221" dy="544" grid="1" gridSize="10" guides="1" tooltips="1" connect="1" arrows="1" fold="1" page="1" pageScale="1" pageWidth="850" pageHeight="1100" math="0" shadow="0">
      <root>
        <mxCell id="0" />
        <mxCell id="1" parent="0" />
        <mxCell id="I5XG1g0LFM-pAjGJXSgX-2" value="AWS S3&lt;br&gt;AWS Storage Gateway (hybrid support)" style="aspect=fixed;perimeter=ellipsePerimeter;html=1;align=left;shadow=0;dashed=0;image;image=img/lib/ibm/data/data_services.svg;strokeColor=#FF0000;fillColor=#FFFF66;gradientColor=none;fontColor=#4277BB;labelBackgroundColor=#ffffff;spacingTop=3;imageBackground=#CCFF99;" vertex="1" parent="1">
          <mxGeometry x="595" y="55" width="60" height="60" as="geometry" />
        </mxCell>
        <mxCell id="I5XG1g0LFM-pAjGJXSgX-3" value="&lt;div style=&quot;&quot;&gt;&lt;font color=&quot;#4277bb&quot;&gt;&lt;span style=&quot;background-color: rgb(255, 255, 255);&quot;&gt;STORAGE&lt;/span&gt;&lt;/font&gt;&lt;/div&gt;" style="text;whiteSpace=wrap;html=1;align=center;" vertex="1" parent="1">
          <mxGeometry x="565" y="20" width="120" height="30" as="geometry" />
        </mxCell>
        <mxCell id="I5XG1g0LFM-pAjGJXSgX-4" value="" style="edgeStyle=orthogonalEdgeStyle;rounded=0;orthogonalLoop=1;jettySize=auto;html=1;" edge="1" parent="1" source="I5XG1g0LFM-pAjGJXSgX-5" target="I5XG1g0LFM-pAjGJXSgX-6">
          <mxGeometry relative="1" as="geometry" />
        </mxCell>
        <mxCell id="I5XG1g0LFM-pAjGJXSgX-14" value="" style="edgeStyle=orthogonalEdgeStyle;rounded=0;orthogonalLoop=1;jettySize=auto;html=1;" edge="1" parent="1" source="I5XG1g0LFM-pAjGJXSgX-5" target="I5XG1g0LFM-pAjGJXSgX-13">
          <mxGeometry relative="1" as="geometry" />
        </mxCell>
        <mxCell id="I5XG1g0LFM-pAjGJXSgX-5" value="Streamlit/Python Code" style="rounded=1;whiteSpace=wrap;html=1;verticalAlign=top;fillColor=#d5e8d4;strokeColor=#82b366;shadow=0;dashed=0;labelBackgroundColor=#ffffff;spacingTop=3;arcSize=50;gradientColor=#97d077;" vertex="1" parent="1">
          <mxGeometry x="80" y="60" width="120" height="46.5" as="geometry" />
        </mxCell>
        <mxCell id="I5XG1g0LFM-pAjGJXSgX-6" value="ChatGPT" style="rounded=1;whiteSpace=wrap;html=1;verticalAlign=top;fillColor=#d5e8d4;strokeColor=#82b366;shadow=0;dashed=0;labelBackgroundColor=#ffffff;spacingTop=3;gradientColor=#97d077;" vertex="1" parent="1">
          <mxGeometry x="260" y="67.75" width="120" height="31" as="geometry" />
        </mxCell>
        <mxCell id="I5XG1g0LFM-pAjGJXSgX-7" value="" style="edgeStyle=orthogonalEdgeStyle;rounded=0;orthogonalLoop=1;jettySize=auto;html=1;" edge="1" parent="1" source="I5XG1g0LFM-pAjGJXSgX-8">
          <mxGeometry relative="1" as="geometry">
            <mxPoint x="380" y="85.5" as="targetPoint" />
          </mxGeometry>
        </mxCell>
        <mxCell id="I5XG1g0LFM-pAjGJXSgX-8" value="External Source Integration" style="rounded=1;whiteSpace=wrap;html=1;verticalAlign=top;fillColor=#FFFF66;strokeColor=#FF0000;fontColor=#4277BB;shadow=0;dashed=0;labelBackgroundColor=#ffffff;gradientColor=none;spacingTop=3;" vertex="1" parent="1">
          <mxGeometry x="410" y="69.5" width="170" height="31" as="geometry" />
        </mxCell>
        <mxCell id="I5XG1g0LFM-pAjGJXSgX-9" value="APIs" style="rounded=1;whiteSpace=wrap;html=1;verticalAlign=top;fillColor=#FFFF66;strokeColor=#FF0000;fontColor=#4277BB;shadow=0;dashed=0;labelBackgroundColor=#ffffff;gradientColor=none;spacingTop=3;" vertex="1" parent="1">
          <mxGeometry x="410" y="115" width="120" height="31" as="geometry" />
        </mxCell>
        <mxCell id="I5XG1g0LFM-pAjGJXSgX-10" value="Tools IntegrationTBD" style="rounded=1;whiteSpace=wrap;html=1;verticalAlign=top;fillColor=#FFFF66;strokeColor=#FF0000;fontColor=#4277BB;shadow=0;dashed=0;labelBackgroundColor=#ffffff;gradientColor=none;spacingTop=3;" vertex="1" parent="1">
          <mxGeometry x="410" y="160" width="120" height="31" as="geometry" />
        </mxCell>
        <mxCell id="I5XG1g0LFM-pAjGJXSgX-13" value="&lt;ol&gt;&lt;li&gt;Additional Python Code to integrate additinal ML and NLP Libs&amp;nbsp;&lt;/li&gt;&lt;li&gt;Integration of additional Data into GPT&lt;/li&gt;&lt;li&gt;Tools Integration&lt;/li&gt;&lt;li&gt;Other TBD&lt;/li&gt;&lt;/ol&gt;" style="rounded=1;whiteSpace=wrap;html=1;verticalAlign=top;fillColor=#d5e8d4;strokeColor=#82b366;shadow=0;dashed=0;labelBackgroundColor=#ffffff;spacingTop=3;arcSize=50;gradientColor=#97d077;align=left;" vertex="1" parent="1">
          <mxGeometry x="30" y="186.5" width="350" height="53.5" as="geometry" />
        </mxCell>
        <mxCell id="I5XG1g0LFM-pAjGJXSgX-17" value="" style="edgeStyle=orthogonalEdgeStyle;rounded=0;orthogonalLoop=1;jettySize=auto;html=1;" edge="1" parent="1" source="I5XG1g0LFM-pAjGJXSgX-15" target="I5XG1g0LFM-pAjGJXSgX-16">
          <mxGeometry relative="1" as="geometry" />
        </mxCell>
        <mxCell id="I5XG1g0LFM-pAjGJXSgX-15" value="&lt;p style=&quot;margin:0px;margin-top:4px;text-align:center;&quot;&gt;&lt;i&gt;&amp;lt;&amp;lt;Main&amp;gt;&amp;gt;&lt;/i&gt;&lt;br&gt;&lt;b&gt;Interface&lt;/b&gt;&lt;/p&gt;&lt;hr size=&quot;1&quot;&gt;&lt;p style=&quot;margin:0px;margin-left:4px;&quot;&gt;+ field1: text_input, GPT input&lt;br&gt;+ field2: Type&lt;/p&gt;&lt;hr size=&quot;1&quot;&gt;&lt;p style=&quot;margin:0px;margin-left:4px;&quot;&gt;+ method1(Type):&amp;nbsp;&lt;br&gt;+ method2(Type, Type): Type&lt;/p&gt;&lt;p style=&quot;margin:0px;margin-left:4px;&quot;&gt;+ method3(Type, Type): Type&lt;br&gt;&lt;/p&gt;&lt;p style=&quot;margin:0px;margin-left:4px;&quot;&gt;&lt;br&gt;&lt;/p&gt;" style="verticalAlign=top;align=left;overflow=fill;fontSize=12;fontFamily=Helvetica;html=1;whiteSpace=wrap;" vertex="1" parent="1">
          <mxGeometry x="45" y="320" width="190" height="140" as="geometry" />
        </mxCell>
        <mxCell id="I5XG1g0LFM-pAjGJXSgX-16" value="Approaches to Look at:&lt;br&gt;&lt;ol&gt;&lt;li&gt;3 Text fields for:&lt;/li&gt;&lt;ol&gt;&lt;li&gt;Resume&lt;/li&gt;&lt;li&gt;JD&lt;/li&gt;&lt;li&gt;Coverletter Template&lt;/li&gt;&lt;/ol&gt;&lt;li&gt;One text field with all of the above (One complex Engineering Prompt)&lt;/li&gt;&lt;li&gt;OR All three sources but with and interative flow that asks for things as needed (stepwise) Engineering prompts&amp;nbsp;&lt;/li&gt;&lt;ol&gt;&lt;li&gt;Create a job coverletter using a JD, standard coverletter template and Resume&lt;/li&gt;&lt;li&gt;Response from interface will be to provide&lt;/li&gt;&lt;ol&gt;&lt;li&gt;Each of the above&lt;/li&gt;&lt;li&gt;User response.&amp;nbsp; Provide each in seperate responses, at the response suggestions (test manually, then code accordingly)&lt;/li&gt;&lt;li&gt;Analyze that flow and response is optimzed wrt result needed&lt;/li&gt;&lt;li&gt;Ultimatley perhaps automate the code so that is seeds the code with the elements above behind the scene and overs an acceptable response&lt;/li&gt;&lt;/ol&gt;&lt;/ol&gt;&lt;/ol&gt;" style="whiteSpace=wrap;html=1;align=left;verticalAlign=top;" vertex="1" parent="1">
          <mxGeometry x="400" y="240" width="420" height="340" as="geometry" />
        </mxCell>
      </root>
    </mxGraphModel>
  </diagram>
</mxfile>
